<?xml version="1.0" encoding="UTF-8"?>
<svg id="a" xmlns="http://www.w3.org/2000/svg" viewBox="0 0 4000 1803.7">
  <defs>
    <style>
      .cls-1 {
        fill: #3f3f3f;
      }

      .cls-2 {
        fill: #2b2b2b;
      }

      .cls-3 {
        fill: #939393;
      }

      .cls-4 {
        fill: #8f8f8f;
      }

      .cls-5 {
        fill: #707070;
      }

      .cls-6 {
        fill: #767676;
      }

      .cls-7 {
        fill: #aaa;
      }

      .cls-8 {
        fill: #ffdd67;
      }

      .cls-9 {
        isolation: isolate;
      }

      .cls-10 {
        fill: #c4c4c4;
      }

      .cls-11 {
        fill: #be1e2d;
      }

      .cls-12 {
        fill: #b0b0b0;
      }

      .cls-13 {
        fill: #fff;
      }

      .cls-14 {
        fill: #42ade2;
      }

      .cls-15 {
        fill: #9f9f9f;
      }

      .cls-16 {
        fill: #eba352;
      }

      .cls-17 {
        fill: #bbb;
      }

      .cls-18 {
        fill: #818181;
      }

      .cls-19 {
        fill: #f2f2f2;
      }

      .cls-20 {
        fill: #8d8d8d;
      }

      .cls-21 {
        fill: #8c8c8c;
      }

      .cls-22 {
        fill: #202020;
      }

      .cls-23 {
        fill: #c2c2c2;
      }

      .cls-24 {
        fill: #adadad;
      }

      .cls-25 {
        fill: #c8c8c8;
      }

      .cls-26 {
        fill: #afafaf;
      }

      .cls-27 {
        fill: #888;
      }

      .cls-28 {
        fill: #898989;
      }
    </style>
  </defs>
  <g id="b">
    <path class="cls-11" d="M4000,1644.96H0V0h4000v1644.96Z"/>
  </g>
  <g id="c">
    <path class="cls-19" d="M4000,1803.7H0v-576.89h4000v576.89Z"/>
  </g>
  <g id="d">
    <path class="cls-10" d="M680.35,1319.89c0,8.01-109.01,14.5-243.47,14.5s-243.47-6.49-243.47-14.5,109.01-14.5,243.47-14.5,243.47,6.49,243.47,14.5Z"/>
    <path class="cls-17" d="M320.26,855.08l253.11-354.18c9.18,7.61,18.36,15.22,27.54,22.83-86.51,121.06-173.02,242.11-259.53,363.17,38.99,137.84,77.97,275.68,116.96,413.52-11.08,3.64-22.17,7.27-33.25,10.91-36.58-129.33-73.16-258.66-109.73-387.99-4.15-14.66-8.3-29.32-12.44-43.98,5.78-8.09,11.57-16.19,17.35-24.28h0Z"/>
    <ellipse class="cls-13" cx="750.79" cy="628.81" rx="101.33" ry="109.16"/>
    <path class="cls-7" d="M782.64,663.11h0c28.03-30.2,28.03-79.16,0-109.36-35.16-37.88-70.32-75.75-105.48-113.63-28.03-30.2-73.48-30.2-101.52,0q-18.69,20.13,0,0c-28.03,30.2-28.03,79.16,0,109.36,35.16,37.88,70.32,75.75,105.48,113.63,28.03,30.2,73.48,30.2,101.52,0Z"/>
    <path class="cls-7" d="M650.14,520.39c76.68-82.61,201.01-82.61,277.7,0-92.57,99.72-185.13,199.43-277.7,299.14-76.68-82.61-76.68-216.54,0-299.14Z"/>
    <path class="cls-7" d="M219.03,1319.93h435.69v-37.44H219.03v37.44h0Z"/>
  </g>
  <g id="e">
    <path class="cls-24" d="M3719.69,1355.44c0,9.82-162.78,17.78-363.57,17.78s-363.57-7.96-363.57-17.78,162.78-17.78,363.57-17.78,363.57,7.96,363.57,17.78Z"/>
    <path class="cls-13" d="M3320.26,742.84c-8.72,11.98-10.41,27.76-5.55,41.59,3.19,9.1,7.82,17.37,9.81,26.91,2.47,11.84-5.14,23.61-10.64,33.46-1.27,2.28-.62,5.56,1.79,6.84,2.36,1.24,5.48.65,6.84-1.79,3.79-6.8,7.53-13.73,9.89-21.17,2.39-7.54,2.93-15.46,1.09-23.18-.8-3.36-2.02-6.61-3.34-9.79-1.25-3.01-2.58-5.98-3.88-8.96-2.11-5.54-4.63-11.94-4.67-17.95-.04-5.52,1.71-11.2,4.27-16.06.89-1.69,1.91-3.29,3.02-4.83,1.54-2.12.43-5.67-1.79-6.84-2.6-1.37-5.19-.47-6.84,1.79v-.02Z"/>
    <path class="cls-13" d="M3352.43,742.84c-8.71,11.98-10.41,27.76-5.55,41.59,3.19,9.1,7.82,17.37,9.81,26.91,2.47,11.84-5.14,23.61-10.64,33.46-1.27,2.28-.62,5.56,1.79,6.84,2.36,1.24,5.48.65,6.84-1.79,3.79-6.8,7.53-13.73,9.89-21.17,2.39-7.54,2.93-15.46,1.09-23.18-.8-3.36-2.02-6.61-3.34-9.79-1.25-3.01-2.57-5.98-3.88-8.96-2.11-5.54-4.63-11.94-4.67-17.95-.04-5.52,1.71-11.2,4.27-16.06.89-1.69,1.9-3.29,3.02-4.83,1.54-2.12.43-5.67-1.79-6.84-2.6-1.37-5.2-.47-6.84,1.79v-.02Z"/>
    <path class="cls-13" d="M3385.88,742.84c-8.71,11.98-10.41,27.76-5.55,41.59,3.19,9.1,7.82,17.37,9.81,26.91,2.47,11.84-5.14,23.61-10.64,33.46-1.27,2.28-.63,5.56,1.79,6.84,2.36,1.24,5.48.65,6.84-1.79,3.79-6.8,7.53-13.73,9.89-21.17,2.39-7.54,2.93-15.46,1.09-23.18-.8-3.36-2.02-6.61-3.34-9.79-1.25-3.01-2.58-5.98-3.88-8.96-2.11-5.54-4.63-11.94-4.67-17.95-.04-5.52,1.72-11.2,4.27-16.06.89-1.69,1.9-3.29,3.02-4.83,1.54-2.12.43-5.67-1.79-6.84-2.6-1.37-5.19-.47-6.84,1.79v-.02Z"/>
    <path class="cls-21" d="M3448.35,961.38v-25.6h73.72c14.14,0,25.6,11.46,25.6,25.6v113.66c0,7.07-2.86,13.46-7.49,18.09s-11.04,7.51-18.11,7.5h-73.72v-25.6h73.72v-113.66h-73.72Z"/>
    <path class="cls-6" d="M3356.12,868.28c-62.44,0-113.07,7.12-113.07,15.87v268.12c0,8.75,50.63,15.87,113.07,15.87s113.07-7.12,113.07-15.87v-268.12c0-8.75-50.64-15.87-113.07-15.87Z"/>
    <path d="M3451.25,892.73c-20.12,4.39-55.21,7.29-95.13,7.29s-75.01-2.91-95.12-7.29c20.12-4.39,55.2-7.29,95.12-7.29s75.01,2.91,95.13,7.29Z"/>
    <path class="cls-15" d="M3356.12,900.03c-62.44,0-113.07-7.12-113.07-15.87v268.11c0,8.75,50.63,15.87,113.07,15.87s113.07-7.12,113.07-15.87v-268.11c0,8.75-50.64,15.87-113.07,15.87Z"/>
    <path class="cls-21" d="M3469.19,1152.28v-268.11c0,1.46-1.42,2.88-4.06,4.22-18.04,39.9-95.79,197.69-222.08,258.94v4.96c0,8.75,50.62,15.87,113.07,15.87s113.07-7.12,113.07-15.87h0Z"/>
    <path class="cls-15" d="M3683.05,1283.72v41.87c0,16.49-13.35,29.84-29.84,29.84h-621.63v-12.97h7.61v-75.63h-7.61v-12.97h621.63c16.49,0,29.85,13.37,29.84,29.84v.02Z"/>
    <path class="cls-21" d="M3329.28,1283.72v41.87c0,16.49-13.35,29.84-29.84,29.84h-267.85v-12.97h7.61v-75.63h-7.61v-12.97h267.85c16.49,0,29.84,13.37,29.84,29.84v.02Z"/>
    <path class="cls-13" d="M3293.94,1342.48h-254.74v-75.63h254.74c12.37,0,22.38,10.02,22.38,22.38v30.87c0,12.36-10.02,22.38-22.38,22.38Z"/>
    <path class="cls-25" d="M3316.32,1289.23v3.86h-277.12v-5.07h277.09c.02.4.03.81.03,1.21h0Z"/>
    <path class="cls-25" d="M3316.32,1313.42v5.09h-277.12v-5.09h277.12,0Z"/>
    <path class="cls-25" d="M3315.63,1325.61c-.45,1.79-1.12,3.51-1.98,5.09h-274.45v-5.09h276.43Z"/>
    <path class="cls-27" d="M3670.25,1182.16v41.87c0,16.49-13.35,29.84-29.84,29.84h-621.63v-12.97h7.61v-75.63h-7.61v-12.97h621.63c16.49,0,29.85,13.37,29.84,29.84v.02Z"/>
    <path class="cls-5" d="M3316.47,1182.16v41.87c0,16.49-13.35,29.84-29.84,29.84h-267.85v-12.97h7.61v-75.63h-7.61v-12.97h267.85c16.49,0,29.84,13.37,29.84,29.84v.02Z"/>
    <path class="cls-13" d="M3281.13,1240.91h-254.74v-75.63h254.74c12.37,0,22.38,10.02,22.38,22.38v30.87c0,12.36-10.02,22.38-22.38,22.38Z"/>
    <path class="cls-25" d="M3303.51,1187.67v3.86h-277.12v-5.07h277.09c.01.4.03.81.03,1.21h0Z"/>
    <path class="cls-25" d="M3303.51,1211.86v5.09h-277.12v-5.09h277.12,0Z"/>
    <path class="cls-25" d="M3302.82,1224.05c-.45,1.79-1.12,3.51-1.98,5.09h-274.45v-5.09h276.43Z"/>
  </g>
  <g id="f">
    <path class="cls-23" d="M842.48,1312.63c0,5.31,54.98,9.62,122.79,9.62s122.79-4.31,122.79-9.62-54.98-9.62-122.79-9.62-122.79,4.31-122.79,9.62Z"/>
    <path class="cls-6" d="M876.92,820.07c51.6,83.7,81.75,178.53,87.33,274.63-1.92,19.51-3.84,39.02-5.76,58.52-19.81-40.42-39.65-80.92-54.84-123-15.19-42.08-25.7-85.93-26.27-130.27-.34-26.65,2.89-53.42-.46-79.89h0Z"/>
    <path class="cls-4" d="M907.25,1014.23c24.79,44.63,45.34,91.85,53.42,141.43-14.71-15.58-29.41-31.16-44.12-46.75-56.07-63.16-88.26-143.95-89.85-225.5,26.64,43.72,55.77,86.18,80.55,130.82h0Z"/>
    <path class="cls-18" d="M949.65,790.08c16.28,44.78,51.97,81.84,68.63,126.51,12.6,33.8,13.68,70.55,8.38,105.95-5.27,35.41-16.7,69.77-28.61,103.78-18.02,8.97-36.04,17.94-54.05,26.91,1.27-48.97,2.5-98.08-2.55-146.84-3.78-36.49-11.1-72.68-12.76-109.31-1.66-36.62,2.71-74.42,20.97-107h-.01Z"/>
    <path class="cls-3" d="M1024.97,953.97c11.03-27.43,27.25-52.86,45.07-77.07-.56,44-2.53,88.15-10.97,131.46-8.46,43.31-23.58,85.92-48.92,123.23-1.89,2.91-3.78,5.81-5.67,8.72-1.74-62.81-3.22-127.41,20.48-186.34h.01Z"/>
    <path class="cls-26" d="M888.29,1296.41h153.97l70.14-222.42h-294.25l70.14,222.42h0Z"/>
    <path class="cls-20" d="M860.5,1312.76h209.55v-22.32h-209.55v22.32h0Z"/>
  </g>
  <g id="g">
    <path class="cls-28" d="M2972.42,1548.71h-1945.12c-5.23,0-8.04-6.16-4.6-10.1,55.98-64.3,111.96-128.61,167.94-192.91h1618.44c55.98,64.3,111.96,128.6,167.94,192.91,3.44,3.95.63,10.1-4.6,10.1h0Z"/>
    <path class="cls-2" d="M2749.5,1208.3h-1499V300.62c0-20.51,16.33-37.14,36.47-37.14h1426.07c20.13,0,36.46,16.63,36.47,37.14v907.68h-.01Z"/>
    <path class="cls-13" d="M2705.26,1119.73h-1410.53V343.16h1410.53v776.57Z"/>
    <path class="cls-22" d="M2962.03,1480.9c-83.18-94.62-153.03-174.09-212.53-241.78h-1499c-59.5,67.69-129.35,147.15-212.53,241.78h-21.81c5.37,2.16,10.73,4.33,16.1,6.49h0c7.07,2.85,14.15,5.7,21.22,8.55,7.88,3.18,15.76,6.35,23.64,9.53,28.99,11.68,59.95,17.69,91.2,17.69h1663.47c31.25,0,62.21-6,91.2-17.69,14.93-6.02,29.85-12.03,44.78-18.05.03-.01.06-.03.09-.04,5.37-2.16,10.73-4.33,16.1-6.49h-21.93Z"/>
    <path class="cls-12" d="M2950.58,1486.53h-1901.16c-26.85,0-42.79-6.63-35.7-14.69,93.97-106.89,171.58-195.18,236.78-269.35h1499c65.2,74.16,142.81,162.46,236.78,269.35,7.1,8.07-8.85,14.69-35.7,14.69Z"/>
    <path class="cls-1" d="M2818.49,1387.45h-1636.98c46.47-58.92,87.96-111.5,125.21-158.72h1386.57c37.25,47.22,78.73,99.8,125.21,158.72h-.01Z"/>
    <path class="cls-2" d="M2319.57,1373.59h-692.19c2.37-6.49,4.7-12.9,7-19.23.77-2.13,7.77-3.84,15.61-3.85h676.59c2.05,6.28,4.12,12.64,6.23,19.09.72,2.2-5.22,4-13.24,3.99Z"/>
    <path class="cls-2" d="M1327.14,1373.59h-89.56c4.84-6.49,9.61-12.9,14.33-19.23,1.58-2.13,9.22-3.84,17.08-3.85h87.54c-4.04,6.28-8.13,12.64-12.27,19.09-1.43,2.2-9.07,4-17.11,3.99h-.01Z"/>
    <path class="cls-2" d="M1394.91,1270.49h-80.54c3.91-5.25,7.78-10.45,11.61-15.58,1.28-1.73,8.06-3.12,15.14-3.12h78.9c-3.28,5.1-6.6,10.26-9.95,15.48-1.16,1.78-7.92,3.23-15.15,3.23h-.01Z"/>
    <path class="cls-2" d="M1516.4,1345.7h-258.05c4.57-6.14,9.1-12.22,13.56-18.21,1.5-2.02,8.91-3.64,16.55-3.64h252.39c-2.81,5.95-5.64,11.97-8.52,18.07-.98,2.08-8.1,3.78-15.93,3.78h0Z"/>
    <path class="cls-2" d="M1490.02,1319.3h-212.01c4.34-5.82,8.62-11.58,12.86-17.27,1.42-1.91,8.61-3.46,16.05-3.46h207.48c-2.89,5.64-5.81,11.36-8.77,17.14-1.01,1.97-8,3.58-15.6,3.58h-.01Z"/>
    <path class="cls-2" d="M2727.51,1345.7h-145.35c-3.59-6.14-7.14-12.22-10.65-18.21-1.18-2.02,4.06-3.64,11.7-3.64h142.16c4.44,5.95,8.93,11.97,13.46,18.07,1.56,2.08-3.52,3.78-11.33,3.78h.01Z"/>
    <path class="cls-2" d="M1457.07,1373.59h-89.56c4.01-6.49,7.97-12.9,11.88-19.23,1.31-2.13,8.74-3.84,16.59-3.85h87.54c-3.24,6.28-6.53,12.64-9.85,19.09-1.14,2.2-8.57,4-16.6,3.99h0Z"/>
    <path class="cls-2" d="M2449.5,1373.59h-89.56c-2.27-6.49-4.52-12.9-6.76-19.23-.75-2.13,5-3.84,12.86-3.85h87.54c2.85,6.28,5.73,12.64,8.65,19.09,1.01,2.2-4.7,4-12.73,3.99Z"/>
    <path class="cls-2" d="M2555.86,1373.59h-65.99c-1.09-2.26-2.17-4.52-3.24-6.76-1.05-2.18,4.55-3.94,12.5-3.94h65.29c1.25,2.23,2.49,4.46,3.74,6.71,1.22,2.2-4.29,4-12.31,3.99h.01Z"/>
    <path class="cls-2" d="M1409.77,1247.88h-78.56c1.42-1.91,2.84-3.82,4.26-5.71,1.25-1.68,7.92-3.04,14.89-3.04h77.8c-1.21,1.88-2.43,3.77-3.65,5.67-1.1,1.69-7.68,3.07-14.73,3.07h-.01Z"/>
    <path class="cls-2" d="M2656.04,1247.88h-78.56c-1.23-1.91-2.46-3.82-3.67-5.71-1.08-1.68,3.7-3.04,10.68-3.04h77.8c1.41,1.88,2.82,3.77,4.23,5.67,1.27,1.69-3.42,3.07-10.46,3.07h-.02Z"/>
    <path class="cls-2" d="M2747.88,1373.59h-65.99c-1.51-2.26-3.01-4.52-4.5-6.76-1.46-2.18,3.8-3.94,11.76-3.94h65.3c1.67,2.23,3.33,4.46,5,6.71,1.65,2.2-3.53,4-11.57,3.99Z"/>
    <path class="cls-2" d="M2651.87,1373.59h-65.99c-1.3-2.26-2.58-4.52-3.87-6.76-1.26-2.18,4.19-3.94,12.13-3.94h65.3c1.45,2.23,2.9,4.46,4.37,6.71,1.44,2.2-3.91,4-11.94,3.99Z"/>
    <path class="cls-2" d="M2643.82,1360.95h-65.17c-1.26-2.21-2.52-4.41-3.78-6.6-1.22-2.13,4.17-3.84,12.01-3.85h64.5c1.41,2.17,2.83,4.35,4.26,6.55,1.4,2.15-3.9,3.9-11.82,3.9h0Z"/>
    <path class="cls-2" d="M1587.01,1373.59h-89.56c3.19-6.49,6.34-12.9,9.44-19.23,1.04-2.13,8.25-3.84,16.1-3.85h87.54c-2.44,6.28-4.92,12.64-7.43,19.09-.85,2.2-8.07,4-16.09,3.99h0Z"/>
    <path class="cls-2" d="M1650.46,1345.7h-87.12c2.7-6.14,5.37-12.22,7.99-18.21.87-2.02,7.8-3.64,15.43-3.64h85.21c-2,5.95-4.03,11.97-6.09,18.07-.7,2.08-7.6,3.78-15.42,3.78Z"/>
    <path class="cls-2" d="M1776.86,1345.7h-87.12c1.91-6.14,3.81-12.22,5.67-18.21.62-2.02,7.33-3.64,14.97-3.64h85.21c-1.26,5.95-2.52,11.97-3.79,18.07-.43,2.08-7.13,3.78-14.94,3.78Z"/>
    <path class="cls-2" d="M1432.65,1294.26h-135.99c4.12-5.53,8.19-10.99,12.21-16.39,1.35-1.82,8.32-3.28,15.58-3.28h133.16c-3.14,5.36-6.33,10.79-9.55,16.28-1.1,1.87-8,3.4-15.41,3.4h0Z"/>
    <path class="cls-2" d="M2708.15,1319.21h-180.68c-3.16-5.82-6.29-11.58-9.39-17.26-1.05-1.91,4.16-3.46,11.59-3.46h176.82c4.21,5.64,8.47,11.36,12.76,17.14,1.48,1.97-3.5,3.58-11.1,3.58h0Z"/>
    <path class="cls-2" d="M1903.25,1345.7h-87.12c1.14-6.14,2.26-12.22,3.36-18.21.38-2.02,6.87-3.64,14.51-3.64h85.21c-.49,5.95-1,11.97-1.5,18.07-.17,2.08-6.64,3.78-14.46,3.78Z"/>
    <path class="cls-2" d="M2029.64,1345.7h-87.12c.35-6.14.7-12.22,1.05-18.21.12-2.02,6.42-3.64,14.04-3.64h85.21c.26,5.95.53,11.97.79,18.07.09,2.08-6.17,3.78-13.98,3.78h0Z"/>
    <path class="cls-2" d="M2156.03,1345.7h-87.12c-.42-6.14-.85-12.22-1.26-18.21-.14-2.02,5.94-3.64,13.58-3.64h85.21c1.02,5.95,2.05,11.97,3.09,18.07.35,2.08-5.69,3.78-13.5,3.78Z"/>
    <path class="cls-2" d="M2282.43,1345.7h-87.12c-1.21-6.14-2.4-12.22-3.57-18.21-.4-2.02,5.47-3.64,13.12-3.64h85.21c1.77,5.95,3.57,11.97,5.38,18.07.61,2.08-5.2,3.78-13.02,3.78h0Z"/>
    <path class="cls-2" d="M2408.82,1345.7h-87.12c-1.99-6.14-3.95-12.22-5.88-18.21-.65-2.02,5.02-3.64,12.66-3.64h85.21c2.52,5.95,5.08,11.97,7.68,18.07.89,2.08-4.73,3.78-12.54,3.78h0Z"/>
    <path class="cls-2" d="M2535.21,1345.7h-87.12c-2.77-6.14-5.5-12.22-8.19-18.21-.91-2.02,4.56-3.64,12.19-3.64h85.21c3.28,5.95,6.61,11.97,9.97,18.07,1.16,2.08-4.24,3.78-12.06,3.78h0Z"/>
    <path class="cls-2" d="M1620.54,1319.3h-84.81c2.79-5.82,5.55-11.58,8.27-17.27.92-1.91,7.7-3.46,15.13-3.46h83c-2.14,5.64-4.29,11.36-6.47,17.14-.73,1.97-7.52,3.58-15.12,3.58h0Z"/>
    <path class="cls-2" d="M1743.57,1319.3h-84.81c2.05-5.82,4.08-11.58,6.08-17.27.68-1.91,7.25-3.46,14.69-3.46h83c-1.41,5.64-2.84,11.36-4.29,17.14-.49,1.97-7.05,3.58-14.67,3.58h0Z"/>
    <path class="cls-2" d="M1866.62,1319.3h-84.81c1.31-5.82,2.6-11.58,3.89-17.27.42-1.91,6.82-3.46,14.25-3.46h83c-.7,5.64-1.4,11.36-2.11,17.14-.24,1.97-6.6,3.58-14.21,3.58h-.01Z"/>
    <path class="cls-2" d="M1989.66,1319.3h-84.81c.57-5.82,1.14-11.58,1.69-17.27.2-1.91,6.37-3.46,13.82-3.46h83c.03,5.64.05,11.36.06,17.14.02,1.97-6.15,3.58-13.76,3.58h0Z"/>
    <path class="cls-2" d="M2112.7,1319.3h-84.81c-.17-5.82-.33-11.58-.5-17.27-.05-1.91,5.94-3.46,13.38-3.46h83c.73,5.64,1.47,11.36,2.24,17.14.26,1.97-5.72,3.58-13.3,3.58h-.01Z"/>
    <path class="cls-2" d="M2235.74,1319.3h-84.81c-.91-5.82-1.8-11.58-2.69-17.27-.3-1.91,5.49-3.46,12.94-3.46h83c1.45,5.64,2.92,11.36,4.41,17.14.51,1.97-5.24,3.58-12.85,3.58h0Z"/>
    <path class="cls-2" d="M2358.78,1319.3h-84.81c-1.65-5.82-3.27-11.58-4.88-17.27-.53-1.91,5.04-3.46,12.5-3.46h83c2.18,5.64,4.38,11.36,6.59,17.14.75,1.97-4.8,3.58-12.39,3.58h-.01Z"/>
    <path class="cls-2" d="M2481.83,1319.3h-84.81c-2.39-5.82-4.74-11.58-7.07-17.27-.78-1.91,4.61-3.46,12.06-3.46h83c2.89,5.64,5.8,11.36,8.76,17.14,1.02,1.97-4.34,3.58-11.94,3.58h0Z"/>
    <path class="cls-2" d="M1559.79,1294.26h-82.62c3.06-5.53,6.09-10.99,9.08-16.39,1-1.82,7.69-3.28,14.95-3.28h80.9c-2.42,5.36-4.88,10.79-7.36,16.28-.85,1.87-7.55,3.4-14.95,3.4h0Z"/>
    <path class="cls-2" d="M1679.65,1294.26h-82.62c2.36-5.53,4.69-10.99,6.99-16.39.77-1.82,7.28-3.28,14.53-3.28h80.9c-1.74,5.36-3.5,10.79-5.29,16.28-.61,1.87-7.11,3.4-14.52,3.4h.01Z"/>
    <path class="cls-2" d="M1799.51,1294.26h-82.62c1.65-5.53,3.29-10.99,4.91-16.39.54-1.82,6.86-3.28,14.12-3.28h80.9c-1.06,5.36-2.14,10.79-3.22,16.28-.37,1.87-6.68,3.4-14.09,3.4h0Z"/>
    <path class="cls-2" d="M1919.38,1294.26h-82.62c.96-5.53,1.9-10.99,2.83-16.39.32-1.82,6.45-3.28,13.7-3.28h80.9c-.37,5.36-.76,10.79-1.16,16.28-.13,1.87-6.25,3.4-13.65,3.4h0Z"/>
    <path class="cls-2" d="M2039.24,1294.26h-82.62c.25-5.53.5-10.99.75-16.39.08-1.82,6.04-3.28,13.28-3.28h80.9c.31,5.36.61,10.79.91,16.28.12,1.87-5.81,3.4-13.22,3.4h0Z"/>
    <path class="cls-2" d="M2159.1,1294.26h-82.62c-.45-5.53-.89-10.99-1.33-16.39-.14-1.82,5.62-3.28,12.87-3.28h80.9c.98,5.36,1.97,10.79,2.97,16.28.34,1.87-5.38,3.4-12.79,3.4h0Z"/>
    <path class="cls-2" d="M2278.97,1294.26h-82.62c-1.15-5.53-2.28-10.99-3.41-16.39-.37-1.82,5.19-3.28,12.45-3.28h80.9c1.66,5.36,3.34,10.79,5.04,16.28.58,1.87-4.96,3.4-12.36,3.4h0Z"/>
    <path class="cls-2" d="M2398.83,1294.26h-82.62c-1.85-5.53-3.68-10.99-5.49-16.39-.61-1.82,4.78-3.28,12.03-3.28h80.9c2.34,5.36,4.71,10.79,7.11,16.28.81,1.87-4.52,3.4-11.93,3.4h0Z"/>
    <path class="cls-2" d="M2519.38,1294.26h-82.62c-2.55-5.53-5.08-10.99-7.58-16.39-.84-1.82,4.37-3.28,11.62-3.28h80.9c3.03,5.36,6.09,10.79,9.18,16.28,1.05,1.87-4.08,3.4-11.49,3.4h0Z"/>
    <path class="cls-2" d="M1518.85,1270.49h-80.54c3.2-5.25,6.37-10.45,9.51-15.58,1.05-1.73,7.64-3.12,14.72-3.12h78.9c-2.59,5.1-5.21,10.26-7.87,15.48-.9,1.78-7.5,3.23-14.72,3.23h0Z"/>
    <path class="cls-2" d="M1635.69,1270.49h-80.54c2.54-5.25,5.05-10.45,7.53-15.58.84-1.73,7.24-3.12,14.32-3.12h78.9c-1.95,5.1-3.92,10.26-5.9,15.48-.69,1.78-7.08,3.23-14.31,3.23h0Z"/>
    <path class="cls-2" d="M1752.54,1270.49h-80.54c1.88-5.25,3.73-10.45,5.55-15.58.61-1.73,6.86-3.12,13.92-3.12h78.9c-1.3,5.1-2.61,10.26-3.94,15.48-.45,1.78-6.68,3.23-13.9,3.23h0Z"/>
    <path class="cls-2" d="M1869.38,1270.49h-80.54c1.21-5.25,2.4-10.45,3.57-15.58.39-1.73,6.46-3.12,13.53-3.12h78.9c-.66,5.1-1.31,10.26-1.98,15.48-.23,1.78-6.27,3.23-13.49,3.23h.01Z"/>
    <path class="cls-2" d="M1986.23,1270.49h-80.54c.54-5.25,1.07-10.45,1.6-15.58.18-1.73,6.06-3.12,13.13-3.12h78.9c0,5.1,0,10.26-.01,15.48-.01,1.78-5.85,3.23-13.08,3.23h0Z"/>
    <path class="cls-2" d="M2103.07,1270.49h-80.54c-.13-5.25-.25-10.45-.38-15.58-.04-1.73,5.66-3.12,12.74-3.12h78.9c.64,5.1,1.29,10.26,1.95,15.48.22,1.78-5.43,3.23-12.67,3.23h0Z"/>
    <path class="cls-2" d="M2219.92,1270.49h-80.54c-.8-5.25-1.58-10.45-2.36-15.58-.26-1.73,5.26-3.12,12.34-3.12h78.9c1.29,5.1,2.6,10.26,3.92,15.48.44,1.78-5.03,3.23-12.26,3.23h0Z"/>
    <path class="cls-2" d="M2336.77,1270.49h-80.54c-1.46-5.25-2.91-10.45-4.34-15.58-.49-1.73,4.88-3.12,11.94-3.12h78.9c1.94,5.1,3.9,10.26,5.88,15.48.68,1.78-4.62,3.23-11.85,3.23h.01Z"/>
    <path class="cls-2" d="M2454.28,1270.49h-80.54c-2.14-5.25-4.25-10.45-6.33-15.58-.71-1.73,4.48-3.12,11.54-3.12h78.9c2.59,5.1,5.21,10.26,7.86,15.48.9,1.78-4.22,3.23-11.44,3.23h.01Z"/>
    <path class="cls-2" d="M2689.93,1294.26h-126.03c-3.3-5.53-6.56-10.99-9.79-16.39-1.09-1.82,3.93-3.28,11.17-3.28h123.4c4,5.36,8.04,10.79,12.12,16.28,1.4,1.87-3.47,3.4-10.88,3.4h.01Z"/>
    <path class="cls-2" d="M2672.56,1270.49h-174.88c-2.84-5.25-5.65-10.45-8.42-15.58-.94-1.73,4.05-3.12,11.12-3.12h171.33c3.81,5.1,7.65,10.26,11.53,15.48,1.34,1.78-3.45,3.23-10.67,3.23h-.01Z"/>
    <path class="cls-2" d="M1652.92,1247.88h-78.56c.91-1.91,1.81-3.82,2.71-5.71.79-1.68,7.09-3.04,14.07-3.04h77.8c-.7,1.88-1.4,3.77-2.11,5.67-.63,1.69-6.85,3.07-13.9,3.07h-.01Z"/>
    <path class="cls-2" d="M1766.89,1247.88h-78.56c.67-1.91,1.33-3.82,1.98-5.71.59-1.68,6.71-3.04,13.68-3.04h77.8c-.47,1.88-.93,3.77-1.39,5.67-.42,1.69-6.47,3.07-13.51,3.07h0Z"/>
    <path class="cls-2" d="M1880.87,1247.88h-78.56c.42-1.91.84-3.82,1.26-5.71.38-1.68,6.32-3.04,13.3-3.04h77.8c-.22,1.88-.45,3.77-.67,5.67-.2,1.69-6.07,3.07-13.12,3.07h-.01Z"/>
    <path class="cls-2" d="M2154.44,1247.68h-78.54c-.15-1.91-.31-3.82-.48-5.71-.15-1.68,5.38-3.03,12.37-3.03h77.78c.35,1.88.7,3.77,1.06,5.67.31,1.7-5.13,3.07-12.18,3.07h-.01Z"/>
    <path class="cls-2" d="M2268.39,1247.68h-78.55c-.41-1.91-.81-3.82-1.21-5.71-.35-1.68,5.01-3.03,11.99-3.03h77.78c.59,1.88,1.18,3.77,1.78,5.67.52,1.7-4.74,3.07-11.79,3.07Z"/>
    <path class="cls-2" d="M2427.99,1247.68h-78.55c-.73-1.91-1.48-3.82-2.22-5.71-.65-1.68,4.47-3.03,11.45-3.03h77.78c.93,1.88,1.85,3.77,2.78,5.67.84,1.7-4.21,3.07-11.24,3.07Z"/>
    <path class="cls-2" d="M2541.94,1247.68h-78.54c-.99-1.91-1.97-3.82-2.95-5.71-.88-1.68,4.08-3.03,11.06-3.03h77.78c1.16,1.88,2.33,3.77,3.5,5.67,1.04,1.7-3.81,3.07-10.85,3.07Z"/>
    <path class="cls-1" d="M2216.25,1473.92h-432.49c-13.28,0-23.35-3.25-22.49-7.23,4.08-19.09,8.02-37.54,11.84-55.38.76-3.57,11.47-6.45,23.94-6.45h405.92c12.47,0,23.19,2.88,23.94,6.45,3.8,17.84,7.75,36.29,11.84,55.38.83,3.98-9.22,7.23-22.49,7.23h-.01Z"/>
  </g>
  <g class="cls-9">
    <g class="cls-9">
      <path d="M1465.38,532.77h14.04v30.06h32.34v-30.06h13.94v72.8h-13.94v-30.99h-32.34v30.99h-14.04v-72.8Z"/>
      <path d="M1547.75,546.91c-2.5,0-4.54-.8-6.14-2.39-1.6-1.59-2.39-3.5-2.39-5.72s.8-4.21,2.39-5.77c1.59-1.56,3.64-2.34,6.14-2.34,2.36,0,4.35.78,5.98,2.34,1.63,1.56,2.44,3.48,2.44,5.77s-.82,4.13-2.44,5.72c-1.63,1.6-3.62,2.39-5.98,2.39ZM1540.99,553.57h13.42v52h-13.42v-52Z"/>
      <path d="M1572.4,590.49h14.46l-12.17,29.33h-9.15l6.86-29.33Z"/>
      <path d="M1628.35,532.77h14.04v72.8h-14.04v-72.8Z"/>
      <path d="M1654.03,532.77h12.27l-1.25,21.53h-9.57l-1.46-21.53Z"/>
      <path d="M1677.33,553.57h12.06l.94,5.1c1.66-1.73,3.66-3.14,5.98-4.21,2.32-1.07,4.87-1.61,7.64-1.61,3.26,0,6.27.71,9.05,2.13,2.77,1.42,5.03,3.45,6.76,6.08,1.8-2.56,4.23-4.58,7.28-6.03,3.05-1.46,6.34-2.18,9.88-2.18,4.09,0,7.64.87,10.66,2.6,3.02,1.73,5.36,4.25,7.02,7.54,1.66,3.29,2.5,7.37,2.5,12.22v30.37h-13.31v-28.7c0-3.88-.87-6.83-2.6-8.84-1.73-2.01-4.2-3.02-7.38-3.02s-5.81,1.02-7.64,3.07c-1.84,2.05-2.76,5.08-2.76,9.1v28.39h-13.31v-28.7c0-3.88-.76-6.83-2.29-8.84-1.53-2.01-3.92-3.02-7.18-3.02s-5.82,1.02-7.49,3.07c-1.66,2.05-2.5,5.04-2.5,9v28.5h-13.31v-52Z"/>
      <path d="M1850.07,544.52h-37.13v18.51h27.77v11.34h-27.77v19.45h37.13v11.75h-51.17v-72.8h51.17v11.75Z"/>
      <path d="M1861.51,553.57h12.17l.83,6.66c1.46-1.8,3.1-3.29,4.94-4.47,1.84-1.18,3.85-1.98,6.03-2.39s4.52-.35,7.02.21v12.38c-1.8-.55-3.74-.69-5.82-.42-2.08.28-4,1.01-5.77,2.18-1.77,1.18-3.22,2.88-4.37,5.1-1.14,2.22-1.72,4.96-1.72,8.22v24.54h-13.31v-52Z"/>
      <path d="M1909.56,546.91c-2.5,0-4.54-.8-6.14-2.39-1.6-1.59-2.39-3.5-2.39-5.72s.8-4.21,2.39-5.77c1.59-1.56,3.64-2.34,6.14-2.34,2.36,0,4.35.78,5.98,2.34,1.63,1.56,2.44,3.48,2.44,5.77s-.82,4.13-2.44,5.72c-1.63,1.6-3.62,2.39-5.98,2.39ZM1902.8,553.57h13.42v52h-13.42v-52Z"/>
      <path d="M1930.67,553.57h12.06l.94,5.3c1.66-1.87,3.69-3.34,6.08-4.42,2.39-1.07,4.97-1.61,7.75-1.61,4.16,0,7.68.87,10.56,2.6,2.88,1.73,5.08,4.25,6.6,7.54,1.52,3.29,2.29,7.37,2.29,12.22v30.37h-13.31v-28.7c0-3.88-.82-6.86-2.44-8.94-1.63-2.08-4.04-3.12-7.23-3.12s-5.74,1.04-7.44,3.12c-1.7,2.08-2.55,5.13-2.55,9.15v28.5h-13.31v-52Z"/>
      <path d="M2032.8,605.57h-14.04v-72.8h16.02l23.19,54.5,23.29-54.5h15.91v72.8h-14.04v-47.01l-19.66,47.01h-11.03l-19.65-47.01v47.01Z"/>
      <path d="M2134.3,606.3c-5.06,0-9.57-1.09-13.52-3.28-3.95-2.18-7.06-5.27-9.31-9.26-2.25-3.99-3.38-8.68-3.38-14.09s1.14-10.23,3.43-14.25c2.29-4.02,5.46-7.12,9.52-9.31,4.05-2.18,8.58-3.28,13.57-3.28s9.52,1.09,13.57,3.28c4.05,2.18,7.26,5.27,9.62,9.26,2.36,3.99,3.54,8.68,3.54,14.09s-1.2,10.23-3.59,14.25c-2.39,4.02-5.63,7.12-9.72,9.31-4.09,2.18-8.67,3.28-13.73,3.28ZM2134.3,594.34c2.15,0,4.18-.54,6.08-1.61,1.91-1.07,3.48-2.7,4.73-4.89,1.25-2.18,1.87-4.97,1.87-8.37s-.59-5.98-1.77-8.16c-1.18-2.18-2.72-3.81-4.63-4.89-1.91-1.07-3.97-1.61-6.19-1.61s-4.14.54-5.98,1.61c-1.84,1.08-3.31,2.7-4.42,4.89-1.11,2.18-1.66,4.98-1.66,8.37s.54,5.98,1.61,8.16c1.07,2.18,2.51,3.81,4.32,4.89,1.8,1.08,3.81,1.61,6.03,1.61Z"/>
      <path d="M2171.43,553.57h12.17l.83,6.66c1.46-1.8,3.1-3.29,4.94-4.47,1.84-1.18,3.85-1.98,6.03-2.39s4.52-.35,7.02.21v12.38c-1.8-.55-3.74-.69-5.82-.42-2.08.28-4,1.01-5.77,2.18-1.77,1.18-3.22,2.88-4.37,5.1-1.14,2.22-1.71,4.96-1.71,8.22v24.54h-13.31v-52Z"/>
      <path d="M2233.62,606.3c-5.27,0-9.88-1.14-13.83-3.43-3.95-2.29-7.02-5.48-9.2-9.57-2.18-4.09-3.28-8.8-3.28-14.14,0-5.06,1.09-9.57,3.28-13.52,2.18-3.95,5.18-7.07,9-9.36,3.81-2.29,8.18-3.43,13.1-3.43s9.39,1.06,13.21,3.17c3.81,2.12,6.78,5.11,8.89,9,2.12,3.88,3.21,8.39,3.28,13.52,0,.76-.05,1.61-.15,2.55-.11.94-.26,1.92-.47,2.96h-35.78c.28,2.22.99,4.11,2.13,5.67,1.14,1.56,2.56,2.77,4.26,3.64,1.7.87,3.66,1.3,5.88,1.3,2.5,0,4.77-.52,6.81-1.56,2.04-1.04,3.52-2.46,4.42-4.26l11.86,3.43c-2.08,4.44-5.18,7.89-9.31,10.35-4.12,2.46-8.82,3.69-14.09,3.69ZM2243.5,574.37c-.14-1.94-.7-3.69-1.66-5.25-.97-1.56-2.24-2.77-3.8-3.64-1.56-.87-3.35-1.3-5.36-1.3-1.73.07-3.36.54-4.89,1.4-1.53.87-2.83,2.05-3.9,3.54-1.07,1.49-1.79,3.24-2.13,5.25h21.74Z"/>
      <path d="M2268.15,530.69h13.31v74.88h-13.31v-74.88Z"/>
      <path d="M2294.25,530.69h13.31v74.88h-13.31v-74.88Z"/>
      <path d="M2328.88,546.91c-2.49,0-4.54-.8-6.13-2.39-1.6-1.59-2.39-3.5-2.39-5.72s.8-4.21,2.39-5.77c1.59-1.56,3.64-2.34,6.13-2.34,2.36,0,4.35.78,5.98,2.34s2.45,3.48,2.45,5.77-.82,4.13-2.45,5.72c-1.63,1.6-3.62,2.39-5.98,2.39ZM2322.12,553.57h13.42v52h-13.42v-52Z"/>
    </g>
  </g>
  <g class="cls-9">
    <g class="cls-9">
      <path d="M1467.96,709.69h3.92v44.98h-3.92v-44.98Z"/>
      <path d="M1481.2,709.69h4.24l-.71,12.02h-2.76l-.77-12.02Z"/>
      <path d="M1494.31,722.54h3.41l.26,5.85c.81-1.88,2.06-3.41,3.73-4.56,1.67-1.16,3.81-1.74,6.43-1.74,2.4,0,4.56.62,6.49,1.86,1.93,1.24,3.36,3.13,4.31,5.65.9-2.57,2.38-4.47,4.43-5.69,2.06-1.22,4.37-1.83,6.94-1.83,2.36,0,4.46.53,6.3,1.57,1.84,1.05,3.28,2.62,4.31,4.72,1.03,2.1,1.54,4.73,1.54,7.9v18.38h-3.66v-17.99c0-3.64-.79-6.42-2.38-8.32-1.59-1.91-3.81-2.86-6.68-2.86s-5.3,1.05-7.04,3.15c-1.74,2.1-2.6,5.18-2.6,9.25v16.77h-3.73v-17.99c0-3.64-.76-6.42-2.28-8.32-1.52-1.91-3.72-2.86-6.59-2.86s-5.28,1.05-6.97,3.15c-1.69,2.1-2.54,5.18-2.54,9.25v16.77h-3.66v-32.13Z"/>
      <path d="M1590.83,754.67l-.26-6.81c-.9,2.31-2.3,4.1-4.21,5.37-1.91,1.26-4.32,1.9-7.23,1.9-2.31,0-4.28-.35-5.91-1.06-1.63-.71-2.88-1.72-3.76-3.05-.88-1.33-1.32-2.91-1.32-4.75,0-2.7,1.01-4.89,3.02-6.59,2.01-1.69,5.01-2.73,9-3.12l10.41-1.16v-2.7c0-2.23-.74-3.97-2.22-5.24s-3.52-1.9-6.14-1.9-4.55.58-6.2,1.73c-1.65,1.16-2.75,2.81-3.31,4.95l-3.34-1.16c.81-2.87,2.33-5.09,4.56-6.65,2.23-1.56,5.01-2.35,8.35-2.35,3.77,0,6.7.94,8.8,2.83,2.1,1.88,3.15,4.48,3.15,7.78v21.98h-3.41ZM1590.57,738.54l-10.47,1.22c-2.74.3-4.77.97-6.07,2.02-1.31,1.05-1.96,2.47-1.96,4.27s.63,3.21,1.9,4.24c1.26,1.03,3.07,1.54,5.43,1.54,2.48,0,4.55-.5,6.2-1.51,1.65-1.01,2.89-2.4,3.73-4.18.84-1.78,1.25-3.78,1.25-6.01v-1.61Z"/>
      <path d="M1623.41,745.29c.3,1.41.8,2.59,1.51,3.53.71.94,1.66,1.65,2.86,2.12,1.2.47,2.63.71,4.31.71,2.66,0,4.66-.52,6.01-1.57,1.35-1.05,2.02-2.37,2.02-3.95,0-1.33-.4-2.38-1.19-3.15-.79-.77-1.83-1.39-3.12-1.86-1.29-.47-2.68-.88-4.18-1.22-1.03-.26-2.19-.56-3.47-.9-1.29-.34-2.52-.82-3.69-1.45-1.18-.62-2.14-1.44-2.89-2.44-.75-1.01-1.12-2.35-1.12-4.02,0-1.8.49-3.37,1.48-4.72s2.35-2.4,4.08-3.15c1.73-.75,3.72-1.12,5.94-1.12,2.66,0,5.01.58,7.07,1.74,2.06,1.16,3.47,3,4.24,5.53l-3.41,1.16c-.39-1.37-1.02-2.41-1.9-3.12-.88-.71-1.85-1.19-2.92-1.45-1.07-.26-2.12-.38-3.15-.38-2.27,0-4.09.46-5.46,1.38-1.37.92-2.06,2.24-2.06,3.95,0,.99.23,1.8.71,2.44.47.64,1.1,1.16,1.9,1.54.79.39,1.7.71,2.73.96,1.03.26,2.1.51,3.21.77,1.24.3,2.51.66,3.79,1.09,1.29.43,2.48.99,3.6,1.67,1.11.69,2.01,1.56,2.7,2.63.68,1.07,1.03,2.42,1.03,4.05,0,1.84-.5,3.45-1.51,4.82-1.01,1.37-2.4,2.42-4.18,3.15-1.78.73-3.87,1.09-6.27,1.09-3.26,0-5.92-.72-8-2.15-2.08-1.43-3.46-3.61-4.14-6.52l3.47-1.16Z"/>
      <path d="M1665.82,755.12c-3,0-5.69-.66-8.06-1.99-2.38-1.33-4.24-3.22-5.59-5.69-1.35-2.46-2.02-5.39-2.02-8.77s.68-6.38,2.06-8.87,3.25-4.39,5.62-5.72c2.38-1.33,5.09-1.99,8.13-1.99s5.69.67,8.06,1.99c2.38,1.33,4.25,3.22,5.62,5.69,1.37,2.46,2.06,5.39,2.06,8.77s-.7,6.38-2.09,8.87c-1.39,2.49-3.28,4.39-5.66,5.72-2.38,1.33-5.09,1.99-8.13,1.99ZM1665.82,751.65c2.06,0,3.99-.46,5.82-1.38,1.82-.92,3.3-2.35,4.43-4.27,1.13-1.93,1.7-4.39,1.7-7.39s-.57-5.46-1.7-7.39c-1.14-1.93-2.6-3.35-4.4-4.27-1.8-.92-3.73-1.38-5.78-1.38s-3.98.46-5.78,1.38c-1.8.92-3.26,2.35-4.37,4.27s-1.67,4.39-1.67,7.39.56,5.46,1.67,7.39,2.56,3.35,4.34,4.27c1.78.92,3.7,1.38,5.75,1.38Z"/>
      <path d="M1691.91,718.56c0-2.27.36-4.21,1.09-5.82.73-1.61,1.92-2.78,3.57-3.53,1.65-.75,3.84-1.02,6.59-.8v3.34c-2.87-.21-4.85.27-5.94,1.45-1.09,1.18-1.64,2.97-1.64,5.37v3.98h7.78v3.47h-7.78v28.66h-3.66v-28.66h-4.88v-3.47h4.88v-3.98Z"/>
      <path d="M1712.92,722.54v-9h3.66v9h9v3.41h-9v18.96c0,1.89.44,3.34,1.32,4.37.88,1.03,2,1.68,3.37,1.96,1.37.28,2.81.29,4.31.03v3.15c-1.54.39-3.08.49-4.59.32-1.52-.17-2.89-.65-4.11-1.45-1.22-.79-2.18-1.87-2.89-3.25-.71-1.37-1.06-3.08-1.06-5.14v-18.96h-5.01v-3.41h5.01Z"/>
      <path d="M1743.06,754.67h-3.28l-10.09-32.13h3.73l8.03,27.31,9.38-27.31h3.28l9.25,27.31,7.97-27.31h3.66l-10.02,32.13h-3.34l-9.25-26.48-9.32,26.48Z"/>
      <path d="M1801.86,754.67l-.26-6.81c-.9,2.31-2.3,4.1-4.21,5.37-1.91,1.26-4.32,1.9-7.23,1.9-2.31,0-4.28-.35-5.91-1.06-1.63-.71-2.88-1.72-3.76-3.05-.88-1.33-1.32-2.91-1.32-4.75,0-2.7,1.01-4.89,3.02-6.59,2.01-1.69,5.01-2.73,9-3.12l10.41-1.16v-2.7c0-2.23-.74-3.97-2.22-5.24-1.48-1.26-3.52-1.9-6.14-1.9s-4.55.58-6.2,1.73c-1.65,1.16-2.75,2.81-3.31,4.95l-3.34-1.16c.81-2.87,2.33-5.09,4.56-6.65,2.23-1.56,5.01-2.35,8.35-2.35,3.77,0,6.7.94,8.8,2.83,2.1,1.88,3.15,4.48,3.15,7.78v21.98h-3.41ZM1801.6,738.54l-10.47,1.22c-2.74.3-4.77.97-6.07,2.02s-1.96,2.47-1.96,4.27.63,3.21,1.9,4.24c1.26,1.03,3.07,1.54,5.43,1.54,2.48,0,4.55-.5,6.2-1.51,1.65-1.01,2.89-2.4,3.73-4.18.84-1.78,1.25-3.78,1.25-6.01v-1.61Z"/>
      <path d="M1815.03,722.54h3.41l.19,5.72c.73-1.33,1.71-2.48,2.96-3.47,1.24-.99,2.66-1.69,4.24-2.12,1.58-.43,3.32-.47,5.21-.13v3.66c-1.84-.39-3.51-.38-5.01.03-1.5.41-2.79,1.12-3.89,2.15-1.09,1.03-1.94,2.31-2.54,3.86-.6,1.54-.9,3.3-.9,5.27v17.16h-3.66v-32.13Z"/>
      <path d="M1850.37,755.12c-3,0-5.65-.72-7.94-2.15-2.29-1.43-4.08-3.42-5.37-5.94s-1.93-5.44-1.93-8.74c0-3.13.65-5.91,1.96-8.35,1.31-2.44,3.09-4.36,5.37-5.75,2.27-1.39,4.86-2.09,7.78-2.09s5.43.63,7.68,1.9c2.25,1.26,4.01,3,5.27,5.21,1.26,2.21,1.87,4.72,1.83,7.55,0,.43-.01.89-.03,1.38-.02.49-.05,1.02-.1,1.57h-25.77c.04,2.36.56,4.43,1.54,6.23.98,1.8,2.3,3.2,3.95,4.21,1.65,1.01,3.52,1.51,5.62,1.51,2.66,0,4.94-.55,6.84-1.64,1.91-1.09,3.29-2.64,4.14-4.66l3.15,1.29c-1.2,2.74-3.02,4.84-5.46,6.3-2.44,1.46-5.29,2.19-8.55,2.19ZM1861.04,736.49c.04-2.14-.39-4.03-1.29-5.66-.9-1.63-2.17-2.91-3.82-3.86-1.65-.94-3.59-1.41-5.82-1.41-1.97,0-3.75.47-5.33,1.41-1.59.94-2.88,2.24-3.89,3.89-1.01,1.65-1.6,3.52-1.77,5.62h21.91Z"/>
      <path d="M1904.41,755.12c-3,0-5.65-.72-7.94-2.15-2.29-1.43-4.08-3.42-5.37-5.94s-1.93-5.44-1.93-8.74c0-3.13.65-5.91,1.96-8.35,1.31-2.44,3.09-4.36,5.37-5.75,2.27-1.39,4.86-2.09,7.78-2.09s5.43.63,7.68,1.9c2.25,1.26,4.01,3,5.27,5.21,1.26,2.21,1.87,4.72,1.83,7.55,0,.43-.01.89-.03,1.38-.02.49-.05,1.02-.1,1.57h-25.77c.04,2.36.56,4.43,1.54,6.23.98,1.8,2.3,3.2,3.95,4.21,1.65,1.01,3.52,1.51,5.62,1.51,2.66,0,4.94-.55,6.84-1.64,1.91-1.09,3.29-2.64,4.14-4.66l3.15,1.29c-1.2,2.74-3.02,4.84-5.46,6.3-2.44,1.46-5.29,2.19-8.55,2.19ZM1915.08,736.49c.04-2.14-.39-4.03-1.29-5.66-.9-1.63-2.17-2.91-3.82-3.86-1.65-.94-3.59-1.41-5.82-1.41-1.97,0-3.75.47-5.33,1.41-1.59.94-2.88,2.24-3.89,3.89-1.01,1.65-1.6,3.52-1.77,5.62h21.91Z"/>
      <path d="M1927.29,722.54h3.41l.19,5.85c.9-1.97,2.24-3.51,4.02-4.63,1.78-1.11,3.95-1.67,6.52-1.67,2.4,0,4.53.53,6.39,1.57,1.86,1.05,3.32,2.61,4.37,4.69,1.05,2.08,1.57,4.72,1.57,7.94v18.38h-3.66v-17.99c0-3.64-.81-6.43-2.44-8.35s-3.9-2.89-6.81-2.89c-3.08,0-5.5,1.03-7.26,3.08-1.76,2.06-2.63,5.12-2.63,9.19v16.96h-3.66v-32.13Z"/>
      <path d="M1988.66,722.54h3.41v25.7c0,4.07-.88,7.54-2.63,10.41-1.76,2.87-4.29,5.07-7.61,6.59-3.32,1.52-7.38,2.28-12.18,2.28l-.58-3.41c6.3-.04,11.09-1.41,14.39-4.11,3.3-2.7,4.95-6.62,4.95-11.76v-1.16l.32.13c-.9,2.14-2.38,3.98-4.43,5.53s-4.75,2.33-8.1,2.38c-3,0-5.6-.67-7.81-2.02-2.21-1.35-3.92-3.27-5.14-5.75s-1.83-5.4-1.83-8.74.61-6.24,1.83-8.71c1.22-2.46,2.93-4.38,5.14-5.75,2.21-1.37,4.81-2.06,7.81-2.06,2.14,0,4.02.34,5.62,1.03,1.61.69,2.96,1.6,4.05,2.73,1.09,1.14,1.94,2.39,2.54,3.76l.26-7.07ZM1965.33,738.61c0,4.03,1.04,7.22,3.12,9.58,2.08,2.36,4.92,3.53,8.51,3.53,2.18,0,4.14-.54,5.88-1.61,1.73-1.07,3.09-2.59,4.08-4.56.99-1.97,1.48-4.28,1.48-6.94s-.49-5.02-1.48-6.97c-.99-1.95-2.35-3.46-4.08-4.53-1.74-1.07-3.7-1.61-5.88-1.61-3.56,0-6.38,1.19-8.48,3.57-2.1,2.38-3.15,5.56-3.15,9.54Z"/>
      <path d="M2005.04,715.34c-.81,0-1.48-.26-1.99-.77-.51-.51-.77-1.16-.77-1.93,0-.81.26-1.48.77-1.99s1.18-.77,1.99-.77c.73,0,1.36.26,1.9.77.54.51.8,1.18.8,1.99s-.27,1.41-.8,1.93c-.54.51-1.17.77-1.9.77ZM2003.18,722.54h3.6v32.13h-3.6v-32.13Z"/>
      <path d="M2017.96,722.54h3.41l.19,5.85c.9-1.97,2.24-3.51,4.02-4.63,1.78-1.11,3.95-1.67,6.52-1.67,2.4,0,4.53.53,6.39,1.57,1.86,1.05,3.32,2.61,4.37,4.69,1.05,2.08,1.57,4.72,1.57,7.94v18.38h-3.66v-17.99c0-3.64-.81-6.43-2.44-8.35s-3.9-2.89-6.81-2.89c-3.08,0-5.5,1.03-7.26,3.08-1.76,2.06-2.63,5.12-2.63,9.19v16.96h-3.66v-32.13Z"/>
      <path d="M2067.31,755.12c-3,0-5.65-.72-7.94-2.15-2.29-1.43-4.08-3.42-5.37-5.94s-1.93-5.44-1.93-8.74c0-3.13.65-5.91,1.96-8.35,1.31-2.44,3.09-4.36,5.37-5.75,2.27-1.39,4.86-2.09,7.78-2.09s5.43.63,7.68,1.9c2.25,1.26,4.01,3,5.27,5.21,1.26,2.21,1.87,4.72,1.83,7.55,0,.43-.01.89-.03,1.38-.02.49-.05,1.02-.1,1.57h-25.77c.04,2.36.56,4.43,1.54,6.23.98,1.8,2.3,3.2,3.95,4.21,1.65,1.01,3.52,1.51,5.62,1.51,2.66,0,4.94-.55,6.84-1.64,1.91-1.09,3.29-2.64,4.14-4.66l3.15,1.29c-1.2,2.74-3.02,4.84-5.46,6.3-2.44,1.46-5.29,2.19-8.55,2.19ZM2077.98,736.49c.04-2.14-.39-4.03-1.29-5.66-.9-1.63-2.17-2.91-3.82-3.86-1.65-.94-3.59-1.41-5.82-1.41-1.97,0-3.75.47-5.33,1.41-1.59.94-2.88,2.24-3.89,3.89-1.01,1.65-1.6,3.52-1.77,5.62h21.91Z"/>
      <path d="M2103.36,755.12c-3,0-5.65-.72-7.94-2.15-2.29-1.43-4.08-3.42-5.37-5.94s-1.93-5.44-1.93-8.74c0-3.13.65-5.91,1.96-8.35,1.31-2.44,3.09-4.36,5.37-5.75,2.27-1.39,4.86-2.09,7.78-2.09s5.43.63,7.68,1.9c2.25,1.26,4.01,3,5.27,5.21,1.26,2.21,1.87,4.72,1.83,7.55,0,.43-.01.89-.03,1.38-.02.49-.05,1.02-.1,1.57h-25.77c.04,2.36.56,4.43,1.54,6.23.98,1.8,2.3,3.2,3.95,4.21,1.65,1.01,3.52,1.51,5.62,1.51,2.66,0,4.94-.55,6.84-1.64,1.91-1.09,3.29-2.64,4.14-4.66l3.15,1.29c-1.2,2.74-3.02,4.84-5.46,6.3-2.44,1.46-5.29,2.19-8.55,2.19ZM2114.03,736.49c.04-2.14-.39-4.03-1.29-5.66-.9-1.63-2.17-2.91-3.82-3.86-1.65-.94-3.59-1.41-5.82-1.41-1.97,0-3.75.47-5.33,1.41-1.59.94-2.88,2.24-3.89,3.89-1.01,1.65-1.6,3.52-1.77,5.62h21.91Z"/>
      <path d="M2126.23,722.54h3.41l.19,5.72c.73-1.33,1.71-2.48,2.96-3.47,1.24-.99,2.66-1.69,4.24-2.12,1.58-.43,3.32-.47,5.21-.13v3.66c-1.84-.39-3.51-.38-5.01.03-1.5.41-2.79,1.12-3.89,2.15-1.09,1.03-1.94,2.31-2.54,3.86-.6,1.54-.9,3.3-.9,5.27v17.16h-3.66v-32.13Z"/>
      <path d="M2177,754.67h-3.28l-10.09-32.13h3.73l8.03,27.31,9.38-27.31h3.28l9.25,27.31,7.97-27.31h3.66l-10.02,32.13h-3.34l-9.25-26.48-9.32,26.48Z"/>
      <path d="M2215.75,708.4h3.66v19.86c.94-2.01,2.36-3.54,4.24-4.59,1.88-1.05,4.05-1.57,6.49-1.57s4.46.53,6.3,1.57c1.84,1.05,3.29,2.62,4.34,4.72,1.05,2.1,1.57,4.78,1.57,8.03v18.25h-3.86v-17.93c0-3.64-.79-6.43-2.38-8.35s-3.86-2.89-6.81-2.89-5.45,1.05-7.23,3.15c-1.78,2.1-2.67,5.18-2.67,9.25v16.77h-3.66v-46.27Z"/>
      <path d="M2265.68,755.12c-3,0-5.69-.66-8.06-1.99-2.38-1.33-4.24-3.22-5.59-5.69-1.35-2.46-2.02-5.39-2.02-8.77s.68-6.38,2.06-8.87,3.25-4.39,5.62-5.72c2.38-1.33,5.09-1.99,8.13-1.99s5.69.67,8.06,1.99c2.38,1.33,4.25,3.22,5.62,5.69,1.37,2.46,2.06,5.39,2.06,8.77s-.7,6.38-2.09,8.87c-1.39,2.49-3.28,4.39-5.66,5.72-2.38,1.33-5.09,1.99-8.13,1.99ZM2265.68,751.65c2.06,0,3.99-.46,5.82-1.38,1.82-.92,3.3-2.35,4.43-4.27,1.13-1.93,1.7-4.39,1.7-7.39s-.57-5.46-1.7-7.39c-1.14-1.93-2.6-3.35-4.4-4.27-1.8-.92-3.73-1.38-5.78-1.38s-3.98.46-5.78,1.38c-1.8.92-3.26,2.35-4.37,4.27s-1.67,4.39-1.67,7.39.56,5.46,1.67,7.39,2.56,3.35,4.34,4.27c1.78.92,3.7,1.38,5.75,1.38Z"/>
      <path d="M2307.77,708.6h3.66v46.07h-3.66v-46.07Z"/>
      <path d="M2335.27,755.12c-3,0-5.69-.66-8.06-1.99-2.38-1.33-4.24-3.22-5.59-5.69-1.35-2.46-2.02-5.39-2.02-8.77s.68-6.38,2.06-8.87,3.25-4.39,5.62-5.72c2.38-1.33,5.09-1.99,8.13-1.99s5.69.67,8.06,1.99c2.38,1.33,4.25,3.22,5.62,5.69,1.37,2.46,2.06,5.39,2.06,8.77s-.7,6.38-2.09,8.87c-1.39,2.49-3.28,4.39-5.66,5.72-2.38,1.33-5.09,1.99-8.13,1.99ZM2335.27,751.65c2.06,0,3.99-.46,5.82-1.38,1.82-.92,3.3-2.35,4.43-4.27,1.13-1.93,1.7-4.39,1.7-7.39s-.57-5.46-1.7-7.39c-1.14-1.93-2.6-3.35-4.4-4.27-1.8-.92-3.73-1.38-5.78-1.38s-3.98.46-5.78,1.38c-1.8.92-3.26,2.35-4.37,4.27s-1.67,4.39-1.67,7.39.56,5.46,1.67,7.39,2.56,3.35,4.34,4.27c1.78.92,3.7,1.38,5.75,1.38Z"/>
      <path d="M2359.24,722.54l11.05,27.82,11.05-27.82h3.86l-13.11,32.13h-3.73l-13.04-32.13h3.92Z"/>
      <path d="M2404.54,755.12c-3,0-5.65-.72-7.94-2.15-2.29-1.43-4.08-3.42-5.37-5.94s-1.93-5.44-1.93-8.74c0-3.13.65-5.91,1.96-8.35,1.31-2.44,3.09-4.36,5.37-5.75,2.27-1.39,4.86-2.09,7.78-2.09s5.43.63,7.68,1.9c2.25,1.26,4.01,3,5.27,5.21,1.26,2.21,1.87,4.72,1.83,7.55,0,.43-.01.89-.03,1.38-.02.49-.05,1.02-.1,1.57h-25.77c.04,2.36.56,4.43,1.54,6.23.98,1.8,2.3,3.2,3.95,4.21,1.65,1.01,3.52,1.51,5.62,1.51,2.66,0,4.94-.55,6.84-1.64,1.91-1.09,3.29-2.64,4.14-4.66l3.15,1.29c-1.2,2.74-3.02,4.84-5.46,6.3-2.44,1.46-5.29,2.19-8.55,2.19ZM2415.21,736.49c.04-2.14-.39-4.03-1.29-5.66-.9-1.63-2.17-2.91-3.82-3.86-1.65-.94-3.59-1.41-5.82-1.41-1.97,0-3.75.47-5.33,1.41-1.59.94-2.88,2.24-3.89,3.89-1.01,1.65-1.6,3.52-1.77,5.62h21.91Z"/>
      <path d="M2428.83,745.29c.3,1.41.8,2.59,1.51,3.53.71.94,1.66,1.65,2.86,2.12,1.2.47,2.63.71,4.31.71,2.66,0,4.66-.52,6.01-1.57,1.35-1.05,2.02-2.37,2.02-3.95,0-1.33-.4-2.38-1.19-3.15-.79-.77-1.83-1.39-3.12-1.86-1.29-.47-2.68-.88-4.18-1.22-1.03-.26-2.19-.56-3.47-.9-1.29-.34-2.52-.82-3.69-1.45-1.18-.62-2.14-1.44-2.89-2.44-.75-1.01-1.12-2.35-1.12-4.02,0-1.8.49-3.37,1.48-4.72s2.35-2.4,4.08-3.15c1.73-.75,3.72-1.12,5.94-1.12,2.66,0,5.01.58,7.07,1.74,2.06,1.16,3.47,3,4.24,5.53l-3.41,1.16c-.39-1.37-1.02-2.41-1.9-3.12-.88-.71-1.85-1.19-2.92-1.45-1.07-.26-2.12-.38-3.15-.38-2.27,0-4.09.46-5.46,1.38-1.37.92-2.06,2.24-2.06,3.95,0,.99.23,1.8.71,2.44.47.64,1.1,1.16,1.9,1.54.79.39,1.7.71,2.73.96,1.03.26,2.1.51,3.21.77,1.24.3,2.51.66,3.79,1.09,1.29.43,2.48.99,3.6,1.67,1.11.69,2.01,1.56,2.7,2.63.68,1.07,1.03,2.42,1.03,4.05,0,1.84-.5,3.45-1.51,4.82-1.01,1.37-2.4,2.42-4.18,3.15-1.78.73-3.87,1.09-6.27,1.09-3.26,0-5.92-.72-8-2.15-2.08-1.43-3.46-3.61-4.14-6.52l3.47-1.16Z"/>
      <path d="M1480.95,845.12c-3.13,0-5.86-.69-8.19-2.06-2.34-1.37-4.15-3.29-5.43-5.75-1.29-2.46-1.93-5.32-1.93-8.58s.64-6.2,1.93-8.71,3.09-4.46,5.43-5.85c2.33-1.39,5.07-2.09,8.19-2.09s6.11.77,8.58,2.31c2.46,1.54,4.23,3.66,5.3,6.36l-3.41,1.16c-.69-1.97-1.96-3.52-3.82-4.66-1.86-1.13-4.04-1.7-6.52-1.7s-4.42.54-6.2,1.61c-1.78,1.07-3.15,2.59-4.11,4.56s-1.45,4.28-1.45,6.94c0,3.94,1.06,7.09,3.18,9.45,2.12,2.36,4.96,3.53,8.51,3.53,2.4,0,4.52-.55,6.36-1.64,1.84-1.09,3.23-2.62,4.18-4.59l3.34,1.16c-1.16,2.7-2.96,4.8-5.4,6.3s-5.29,2.25-8.55,2.25Z"/>
      <path d="M1503.11,798.6h3.66v46.07h-3.66v-46.07Z"/>
      <path d="M1530.17,845.12c-3,0-5.64-.72-7.94-2.15-2.29-1.43-4.08-3.42-5.37-5.94s-1.93-5.44-1.93-8.74c0-3.13.65-5.91,1.96-8.35,1.31-2.44,3.09-4.36,5.37-5.75,2.27-1.39,4.86-2.09,7.78-2.09s5.43.63,7.68,1.9c2.25,1.26,4,3,5.27,5.21,1.26,2.21,1.87,4.72,1.83,7.55,0,.43-.01.89-.03,1.38-.02.49-.05,1.02-.1,1.57h-25.77c.04,2.36.56,4.43,1.54,6.23.98,1.8,2.3,3.2,3.95,4.21,1.65,1.01,3.52,1.51,5.62,1.51,2.66,0,4.94-.55,6.84-1.64,1.91-1.09,3.29-2.64,4.14-4.66l3.15,1.29c-1.2,2.74-3.02,4.84-5.46,6.3-2.44,1.46-5.29,2.19-8.55,2.19ZM1540.83,826.49c.04-2.14-.39-4.03-1.29-5.66-.9-1.63-2.17-2.91-3.82-3.86-1.65-.94-3.59-1.41-5.82-1.41-1.97,0-3.75.47-5.33,1.41-1.59.94-2.88,2.24-3.89,3.89-1.01,1.65-1.6,3.52-1.77,5.62h21.91Z"/>
      <path d="M1573.73,844.67l-.26-6.81c-.9,2.31-2.3,4.1-4.21,5.37-1.91,1.26-4.32,1.9-7.23,1.9-2.31,0-4.28-.35-5.91-1.06-1.63-.71-2.88-1.72-3.76-3.05-.88-1.33-1.32-2.91-1.32-4.75,0-2.7,1.01-4.89,3.02-6.59,2.01-1.69,5.01-2.73,9-3.12l10.41-1.16v-2.7c0-2.23-.74-3.97-2.22-5.24s-3.52-1.9-6.14-1.9-4.55.58-6.2,1.73c-1.65,1.16-2.75,2.81-3.31,4.95l-3.34-1.16c.81-2.87,2.33-5.09,4.56-6.65,2.23-1.56,5.01-2.35,8.35-2.35,3.77,0,6.7.94,8.8,2.83,2.1,1.88,3.15,4.48,3.15,7.78v21.98h-3.41ZM1573.48,828.54l-10.47,1.22c-2.74.3-4.77.97-6.07,2.02-1.31,1.05-1.96,2.47-1.96,4.27s.63,3.21,1.9,4.24c1.26,1.03,3.07,1.54,5.43,1.54,2.48,0,4.55-.5,6.2-1.51,1.65-1.01,2.89-2.4,3.73-4.18.84-1.78,1.25-3.78,1.25-6.01v-1.61Z"/>
      <path d="M1586.91,812.54h3.41l.19,5.85c.9-1.97,2.24-3.51,4.02-4.63,1.78-1.11,3.95-1.67,6.52-1.67,2.4,0,4.53.53,6.39,1.57,1.86,1.05,3.32,2.61,4.37,4.69,1.05,2.08,1.57,4.72,1.57,7.94v18.38h-3.66v-17.99c0-3.64-.81-6.43-2.44-8.35s-3.9-2.89-6.81-2.89c-3.08,0-5.5,1.03-7.26,3.08-1.76,2.06-2.63,5.12-2.63,9.19v16.96h-3.66v-32.13Z"/>
      <path d="M1666.33,820l-.32.13v-21.72h3.66v46.27h-3.41l-.26-7.07c-.9,2.1-2.39,3.88-4.47,5.33-2.08,1.46-4.66,2.19-7.74,2.19s-5.55-.67-7.78-2.02c-2.23-1.35-3.95-3.27-5.17-5.75s-1.83-5.4-1.83-8.74.61-6.24,1.83-8.71c1.22-2.46,2.94-4.38,5.17-5.75,2.23-1.37,4.82-2.06,7.78-2.06,3.25,0,5.93.76,8.03,2.28,2.1,1.52,3.6,3.4,4.5,5.62ZM1642.94,828.61c0,4.03,1.04,7.22,3.12,9.58,2.08,2.36,4.89,3.53,8.45,3.53,2.23,0,4.21-.54,5.94-1.61,1.73-1.07,3.09-2.58,4.08-4.53.99-1.95,1.48-4.27,1.48-6.97s-.49-5.02-1.48-6.97c-.99-1.95-2.35-3.46-4.08-4.53-1.74-1.07-3.72-1.61-5.94-1.61-3.56,0-6.37,1.18-8.45,3.53-2.08,2.36-3.12,5.55-3.12,9.57Z"/>
      <path d="M1693.06,845.12c-3,0-5.65-.72-7.94-2.15-2.29-1.43-4.08-3.42-5.37-5.94s-1.93-5.44-1.93-8.74c0-3.13.65-5.91,1.96-8.35,1.31-2.44,3.09-4.36,5.37-5.75,2.27-1.39,4.86-2.09,7.78-2.09s5.43.63,7.68,1.9c2.25,1.26,4.01,3,5.27,5.21,1.26,2.21,1.87,4.72,1.83,7.55,0,.43-.01.89-.03,1.38-.02.49-.05,1.02-.1,1.57h-25.77c.04,2.36.56,4.43,1.54,6.23.98,1.8,2.3,3.2,3.95,4.21,1.65,1.01,3.52,1.51,5.62,1.51,2.66,0,4.94-.55,6.84-1.64,1.91-1.09,3.29-2.64,4.14-4.66l3.15,1.29c-1.2,2.74-3.02,4.84-5.46,6.3-2.44,1.46-5.29,2.19-8.55,2.19ZM1703.73,826.49c.04-2.14-.39-4.03-1.29-5.66-.9-1.63-2.17-2.91-3.82-3.86-1.65-.94-3.59-1.41-5.82-1.41-1.97,0-3.75.47-5.33,1.41-1.59.94-2.88,2.24-3.89,3.89-1.01,1.65-1.6,3.52-1.77,5.62h21.91Z"/>
      <path d="M1717.35,835.29c.3,1.41.8,2.59,1.51,3.53.71.94,1.66,1.65,2.86,2.12,1.2.47,2.63.71,4.31.71,2.66,0,4.66-.52,6.01-1.57,1.35-1.05,2.02-2.37,2.02-3.95,0-1.33-.4-2.38-1.19-3.15-.79-.77-1.83-1.39-3.12-1.86-1.29-.47-2.68-.88-4.18-1.22-1.03-.26-2.19-.56-3.47-.9-1.29-.34-2.52-.82-3.69-1.45-1.18-.62-2.14-1.44-2.89-2.44-.75-1.01-1.12-2.35-1.12-4.02,0-1.8.49-3.37,1.48-4.72s2.35-2.4,4.08-3.15c1.73-.75,3.72-1.12,5.94-1.12,2.66,0,5.01.58,7.07,1.74,2.06,1.16,3.47,3,4.24,5.53l-3.41,1.16c-.39-1.37-1.02-2.41-1.9-3.12-.88-.71-1.85-1.19-2.92-1.45-1.07-.26-2.12-.38-3.15-.38-2.27,0-4.09.46-5.46,1.38-1.37.92-2.06,2.24-2.06,3.95,0,.99.23,1.8.71,2.44.47.64,1.1,1.16,1.9,1.54.79.39,1.7.71,2.73.96,1.03.26,2.1.51,3.21.77,1.24.3,2.51.66,3.79,1.09,1.29.43,2.48.99,3.6,1.67,1.11.69,2.01,1.56,2.7,2.63.68,1.07,1.03,2.42,1.03,4.05,0,1.84-.5,3.45-1.51,4.82-1.01,1.37-2.4,2.42-4.18,3.15-1.78.73-3.87,1.09-6.27,1.09-3.26,0-5.92-.72-8-2.15-2.08-1.43-3.46-3.61-4.14-6.52l3.47-1.16Z"/>
      <path d="M1748.9,805.34c-.81,0-1.48-.26-1.99-.77-.51-.51-.77-1.16-.77-1.93,0-.81.26-1.48.77-1.99s1.18-.77,1.99-.77c.73,0,1.36.26,1.9.77.54.51.8,1.18.8,1.99s-.27,1.41-.8,1.93c-.54.51-1.17.77-1.9.77ZM1747.04,812.54h3.6v32.13h-3.6v-32.13Z"/>
      <path d="M1787.01,812.54h3.41v25.7c0,4.07-.88,7.54-2.63,10.41-1.76,2.87-4.29,5.07-7.61,6.59-3.32,1.52-7.38,2.28-12.18,2.28l-.58-3.41c6.3-.04,11.09-1.41,14.39-4.11,3.3-2.7,4.95-6.62,4.95-11.76v-1.16l.32.13c-.9,2.14-2.38,3.98-4.43,5.53s-4.75,2.33-8.1,2.38c-3,0-5.6-.67-7.81-2.02-2.21-1.35-3.92-3.27-5.14-5.75s-1.83-5.4-1.83-8.74.61-6.24,1.83-8.71c1.22-2.46,2.93-4.38,5.14-5.75,2.21-1.37,4.81-2.06,7.81-2.06,2.14,0,4.02.34,5.62,1.03,1.61.69,2.96,1.6,4.05,2.73,1.09,1.14,1.94,2.39,2.54,3.76l.26-7.07ZM1763.68,828.61c0,4.03,1.04,7.22,3.12,9.58,2.08,2.36,4.92,3.53,8.51,3.53,2.18,0,4.14-.54,5.88-1.61,1.73-1.07,3.09-2.59,4.08-4.56.99-1.97,1.48-4.28,1.48-6.94s-.49-5.02-1.48-6.97c-.99-1.95-2.35-3.46-4.08-4.53-1.74-1.07-3.7-1.61-5.88-1.61-3.56,0-6.38,1.19-8.48,3.57-2.1,2.38-3.15,5.56-3.15,9.54Z"/>
      <path d="M1800.63,812.54h3.41l.19,5.85c.9-1.97,2.24-3.51,4.02-4.63,1.78-1.11,3.95-1.67,6.52-1.67,2.4,0,4.53.53,6.39,1.57,1.86,1.05,3.32,2.61,4.37,4.69,1.05,2.08,1.57,4.72,1.57,7.94v18.38h-3.66v-17.99c0-3.64-.81-6.43-2.44-8.35s-3.9-2.89-6.81-2.89c-3.08,0-5.5,1.03-7.26,3.08-1.76,2.06-2.63,5.12-2.63,9.19v16.96h-3.66v-32.13Z"/>
      <path d="M1839.06,837.47h4.37l-6.43,16.71h-2.76l4.82-16.71Z"/>
      <path d="M1872.92,812.54v-9h3.66v9h9v3.41h-9v18.96c0,1.89.44,3.34,1.32,4.37.88,1.03,2,1.68,3.37,1.96,1.37.28,2.81.29,4.31.03v3.15c-1.54.39-3.08.49-4.59.32-1.52-.17-2.89-.65-4.11-1.45-1.22-.79-2.18-1.87-2.89-3.25-.71-1.37-1.06-3.08-1.06-5.14v-18.96h-5.01v-3.41h5.01Z"/>
      <path d="M1893.1,798.4h3.66v19.86c.94-2.01,2.36-3.54,4.24-4.59,1.88-1.05,4.05-1.57,6.49-1.57s4.46.53,6.3,1.57c1.84,1.05,3.29,2.62,4.34,4.72,1.05,2.1,1.57,4.78,1.57,8.03v18.25h-3.86v-17.93c0-3.64-.79-6.43-2.38-8.35s-3.86-2.89-6.81-2.89-5.45,1.05-7.23,3.15c-1.78,2.1-2.67,5.18-2.67,9.25v16.77h-3.66v-46.27Z"/>
      <path d="M1943.03,845.12c-3,0-5.69-.66-8.06-1.99-2.38-1.33-4.24-3.22-5.59-5.69-1.35-2.46-2.02-5.39-2.02-8.77s.68-6.38,2.06-8.87,3.25-4.39,5.62-5.72c2.38-1.33,5.09-1.99,8.13-1.99s5.69.67,8.06,1.99c2.38,1.33,4.25,3.22,5.62,5.69,1.37,2.46,2.06,5.39,2.06,8.77s-.7,6.38-2.09,8.87c-1.39,2.49-3.28,4.39-5.66,5.72-2.38,1.33-5.09,1.99-8.13,1.99ZM1943.03,841.65c2.06,0,3.99-.46,5.82-1.38,1.82-.92,3.3-2.35,4.43-4.27,1.13-1.93,1.7-4.39,1.7-7.39s-.57-5.46-1.7-7.39c-1.14-1.93-2.6-3.35-4.4-4.27-1.8-.92-3.73-1.38-5.78-1.38s-3.98.46-5.78,1.38c-1.8.92-3.26,2.35-4.37,4.27s-1.67,4.39-1.67,7.39.56,5.46,1.67,7.39,2.56,3.35,4.34,4.27c1.78.92,3.7,1.38,5.75,1.38Z"/>
      <path d="M1993.02,844.67h-3.41l-.19-5.72c-.9,1.97-2.23,3.49-3.98,4.56-1.76,1.07-3.94,1.61-6.55,1.61-2.4,0-4.53-.5-6.39-1.51-1.86-1.01-3.31-2.55-4.34-4.63s-1.54-4.7-1.54-7.87v-18.57h3.6v18.25c0,3.64.8,6.37,2.41,8.19s3.89,2.73,6.84,2.73,5.45-.99,7.23-2.96c1.78-1.97,2.67-4.97,2.67-9v-17.22h3.66v32.13Z"/>
      <path d="M2028.43,812.54h3.41v25.7c0,4.07-.88,7.54-2.63,10.41-1.76,2.87-4.29,5.07-7.61,6.59-3.32,1.52-7.38,2.28-12.18,2.28l-.58-3.41c6.3-.04,11.09-1.41,14.39-4.11,3.3-2.7,4.95-6.62,4.95-11.76v-1.16l.32.13c-.9,2.14-2.38,3.98-4.43,5.53s-4.75,2.33-8.1,2.38c-3,0-5.6-.67-7.81-2.02-2.21-1.35-3.92-3.27-5.14-5.75s-1.83-5.4-1.83-8.74.61-6.24,1.83-8.71c1.22-2.46,2.93-4.38,5.14-5.75,2.21-1.37,4.81-2.06,7.81-2.06,2.14,0,4.02.34,5.62,1.03,1.61.69,2.96,1.6,4.05,2.73,1.09,1.14,1.94,2.39,2.54,3.76l.26-7.07ZM2005.1,828.61c0,4.03,1.04,7.22,3.12,9.58,2.08,2.36,4.92,3.53,8.51,3.53,2.18,0,4.14-.54,5.88-1.61,1.73-1.07,3.09-2.59,4.08-4.56.99-1.97,1.48-4.28,1.48-6.94s-.49-5.02-1.48-6.97c-.99-1.95-2.35-3.46-4.08-4.53-1.74-1.07-3.7-1.61-5.88-1.61-3.56,0-6.38,1.19-8.48,3.57-2.1,2.38-3.15,5.56-3.15,9.54Z"/>
      <path d="M2042.05,798.4h3.66v19.86c.94-2.01,2.36-3.54,4.24-4.59,1.88-1.05,4.05-1.57,6.49-1.57s4.46.53,6.3,1.57c1.84,1.05,3.29,2.62,4.34,4.72,1.05,2.1,1.57,4.78,1.57,8.03v18.25h-3.86v-17.93c0-3.64-.79-6.43-2.38-8.35s-3.86-2.89-6.81-2.89-5.45,1.05-7.23,3.15c-1.78,2.1-2.67,5.18-2.67,9.25v16.77h-3.66v-46.27Z"/>
      <path d="M2080.48,812.54v-9h3.66v9h9v3.41h-9v18.96c0,1.89.44,3.34,1.32,4.37.88,1.03,2,1.68,3.37,1.96,1.37.28,2.81.29,4.31.03v3.15c-1.54.39-3.08.49-4.59.32-1.52-.17-2.89-.65-4.11-1.45-1.22-.79-2.18-1.87-2.89-3.25-.71-1.37-1.06-3.08-1.06-5.14v-18.96h-5.01v-3.41h5.01Z"/>
      <path d="M2102.65,808.56c0-2.27.36-4.21,1.09-5.82.73-1.61,1.92-2.78,3.57-3.53,1.65-.75,3.84-1.02,6.59-.8v3.34c-2.87-.21-4.85.27-5.94,1.45-1.09,1.18-1.64,2.97-1.64,5.37v3.98h7.78v3.47h-7.78v28.66h-3.66v-28.66h-4.88v-3.47h4.88v-3.98Z"/>
      <path d="M2147.44,844.67h-3.41l-.19-5.72c-.9,1.97-2.23,3.49-3.98,4.56-1.76,1.07-3.94,1.61-6.55,1.61-2.4,0-4.53-.5-6.39-1.51-1.86-1.01-3.31-2.55-4.34-4.63s-1.54-4.7-1.54-7.87v-18.57h3.6v18.25c0,3.64.8,6.37,2.41,8.19s3.89,2.73,6.84,2.73,5.45-.99,7.23-2.96c1.78-1.97,2.67-4.97,2.67-9v-17.22h3.66v32.13Z"/>
      <path d="M2157.65,798.6h3.66v46.07h-3.66v-46.07Z"/>
      <path d="M2189.78,799.69h3.92v28.27c0,3.26.58,5.9,1.74,7.94,1.16,2.04,2.71,3.51,4.66,4.43,1.95.92,4.12,1.38,6.52,1.38s4.55-.46,6.46-1.38c1.91-.92,3.43-2.4,4.56-4.43,1.13-2.03,1.7-4.68,1.7-7.94v-28.27h3.92v28.21c0,3-.44,5.58-1.32,7.74s-2.09,3.94-3.63,5.33c-1.54,1.39-3.32,2.43-5.33,3.12-2.01.68-4.16,1.03-6.43,1.03-3.04,0-5.83-.61-8.35-1.83s-4.56-3.09-6.1-5.62c-1.54-2.53-2.31-5.78-2.31-9.77v-28.21Z"/>
      <path d="M2232.45,799.69h4.31l14.01,19.41,14.01-19.41h4.37l-16.19,22.49,16.19,22.49h-4.37l-14.01-19.41-14.01,19.41h-4.31l16.13-22.49-16.13-22.49Z"/>
      <path d="M2280.26,837.47h4.37l-6.43,16.71h-2.76l4.82-16.71Z"/>
      <path d="M2332.69,844.67l-.26-6.81c-.9,2.31-2.3,4.1-4.21,5.37-1.91,1.26-4.32,1.9-7.23,1.9-2.31,0-4.28-.35-5.91-1.06-1.63-.71-2.88-1.72-3.76-3.05-.88-1.33-1.32-2.91-1.32-4.75,0-2.7,1.01-4.89,3.02-6.59,2.01-1.69,5.01-2.73,9-3.12l10.41-1.16v-2.7c0-2.23-.74-3.97-2.22-5.24-1.48-1.26-3.52-1.9-6.14-1.9s-4.55.58-6.2,1.73c-1.65,1.16-2.75,2.81-3.31,4.95l-3.34-1.16c.81-2.87,2.33-5.09,4.56-6.65,2.23-1.56,5.01-2.35,8.35-2.35,3.77,0,6.7.94,8.8,2.83,2.1,1.88,3.15,4.48,3.15,7.78v21.98h-3.41ZM2332.44,828.54l-10.47,1.22c-2.74.3-4.77.97-6.07,2.02s-1.96,2.47-1.96,4.27.63,3.21,1.9,4.24c1.26,1.03,3.07,1.54,5.43,1.54,2.48,0,4.55-.5,6.2-1.51,1.65-1.01,2.89-2.4,3.73-4.18.84-1.78,1.25-3.78,1.25-6.01v-1.61Z"/>
      <path d="M2345.87,812.54h3.41l.19,5.85c.9-1.97,2.24-3.51,4.02-4.63,1.78-1.11,3.95-1.67,6.52-1.67,2.4,0,4.53.53,6.39,1.57,1.86,1.05,3.32,2.61,4.37,4.69,1.05,2.08,1.57,4.72,1.57,7.94v18.38h-3.66v-17.99c0-3.64-.81-6.43-2.44-8.35s-3.9-2.89-6.81-2.89c-3.08,0-5.5,1.03-7.26,3.08-1.76,2.06-2.63,5.12-2.63,9.19v16.96h-3.66v-32.13Z"/>
      <path d="M2407.3,820l-.32.13v-21.72h3.66v46.27h-3.41l-.26-7.07c-.9,2.1-2.39,3.88-4.47,5.33-2.08,1.46-4.66,2.19-7.74,2.19s-5.55-.67-7.78-2.02c-2.23-1.35-3.95-3.27-5.17-5.75s-1.83-5.4-1.83-8.74.61-6.24,1.83-8.71c1.22-2.46,2.94-4.38,5.17-5.75,2.23-1.37,4.82-2.06,7.78-2.06,3.25,0,5.93.76,8.03,2.28,2.1,1.52,3.6,3.4,4.5,5.62ZM2383.91,828.61c0,4.03,1.04,7.22,3.12,9.58,2.08,2.36,4.89,3.53,8.45,3.53,2.23,0,4.21-.54,5.94-1.61,1.73-1.07,3.09-2.58,4.08-4.53.99-1.95,1.48-4.27,1.48-6.97s-.49-5.02-1.48-6.97c-.99-1.95-2.35-3.46-4.08-4.53-1.74-1.07-3.72-1.61-5.94-1.61-3.56,0-6.37,1.18-8.45,3.53-2.08,2.36-3.12,5.55-3.12,9.57Z"/>
      <path d="M1470.79,910c.86-2.23,2.33-4.1,4.43-5.62,2.1-1.52,4.8-2.28,8.1-2.28,2.96,0,5.55.69,7.78,2.06,2.23,1.37,3.95,3.29,5.17,5.75,1.22,2.46,1.83,5.37,1.83,8.71s-.62,6.26-1.86,8.74c-1.24,2.48-2.97,4.4-5.17,5.75-2.21,1.35-4.79,2.02-7.74,2.02-3.13,0-5.72-.73-7.78-2.19-2.06-1.46-3.53-3.23-4.43-5.33l-.26,7.07h-3.41v-46.27h3.66v21.72l-.32-.13ZM1494.18,918.61c0-4.03-1.05-7.22-3.15-9.57-2.1-2.36-4.91-3.53-8.42-3.53-2.23,0-4.22.54-5.98,1.61-1.76,1.07-3.12,2.58-4.08,4.53-.96,1.95-1.45,4.27-1.45,6.97s.49,5.02,1.48,6.97c.98,1.95,2.35,3.46,4.08,4.53,1.73,1.07,3.72,1.61,5.94,1.61,3.56,0,6.37-1.18,8.45-3.53,2.08-2.36,3.12-5.55,3.12-9.58Z"/>
      <path d="M1532.16,934.67h-3.41l-.19-5.72c-.9,1.97-2.23,3.49-3.98,4.56-1.76,1.07-3.94,1.61-6.55,1.61-2.4,0-4.53-.5-6.39-1.51-1.86-1.01-3.31-2.55-4.34-4.63s-1.54-4.7-1.54-7.87v-18.57h3.6v18.25c0,3.64.8,6.37,2.41,8.19,1.61,1.82,3.89,2.73,6.84,2.73s5.45-.99,7.23-2.96c1.78-1.97,2.67-4.97,2.67-9v-17.22h3.66v32.13Z"/>
      <path d="M1545.14,895.34c-.81,0-1.48-.26-1.99-.77-.51-.51-.77-1.16-.77-1.93,0-.81.26-1.48.77-1.99.51-.51,1.18-.77,1.99-.77.73,0,1.36.26,1.9.77.54.51.8,1.18.8,1.99s-.27,1.41-.8,1.93c-.54.51-1.17.77-1.9.77ZM1543.28,902.54h3.6v32.13h-3.6v-32.13Z"/>
      <path d="M1558.06,888.6h3.66v46.07h-3.66v-46.07Z"/>
      <path d="M1597.19,910l-.32.13v-21.72h3.66v46.27h-3.41l-.26-7.07c-.9,2.1-2.39,3.88-4.47,5.33-2.08,1.46-4.66,2.19-7.74,2.19s-5.55-.67-7.78-2.02c-2.23-1.35-3.95-3.27-5.17-5.75-1.22-2.48-1.83-5.4-1.83-8.74s.61-6.24,1.83-8.71c1.22-2.46,2.94-4.38,5.17-5.75,2.23-1.37,4.82-2.06,7.78-2.06,3.26,0,5.93.76,8.03,2.28,2.1,1.52,3.6,3.4,4.5,5.62ZM1573.8,918.61c0,4.03,1.04,7.22,3.12,9.58,2.08,2.36,4.89,3.53,8.45,3.53,2.23,0,4.21-.54,5.94-1.61,1.73-1.07,3.09-2.58,4.08-4.53.98-1.95,1.48-4.27,1.48-6.97s-.49-5.02-1.48-6.97c-.99-1.95-2.35-3.46-4.08-4.53-1.73-1.07-3.72-1.61-5.94-1.61-3.56,0-6.37,1.18-8.45,3.53-2.08,2.36-3.12,5.55-3.12,9.57Z"/>
      <path d="M1613.51,895.34c-.81,0-1.48-.26-1.99-.77-.51-.51-.77-1.16-.77-1.93,0-.81.26-1.48.77-1.99s1.18-.77,1.99-.77c.73,0,1.36.26,1.9.77.54.51.8,1.18.8,1.99s-.27,1.41-.8,1.93c-.54.51-1.17.77-1.9.77ZM1611.65,902.54h3.6v32.13h-3.6v-32.13Z"/>
      <path d="M1626.43,902.54h3.41l.19,5.85c.9-1.97,2.24-3.51,4.02-4.63,1.78-1.11,3.95-1.67,6.52-1.67,2.4,0,4.53.53,6.39,1.57,1.86,1.05,3.32,2.61,4.37,4.69,1.05,2.08,1.57,4.72,1.57,7.94v18.38h-3.66v-17.99c0-3.64-.81-6.43-2.44-8.35s-3.9-2.89-6.81-2.89c-3.08,0-5.5,1.03-7.26,3.08-1.76,2.06-2.63,5.12-2.63,9.19v16.96h-3.66v-32.13Z"/>
      <path d="M1687.79,902.54h3.41v25.7c0,4.07-.88,7.54-2.63,10.41-1.76,2.87-4.29,5.07-7.61,6.59-3.32,1.52-7.38,2.28-12.18,2.28l-.58-3.41c6.3-.04,11.09-1.41,14.39-4.11,3.3-2.7,4.95-6.62,4.95-11.76v-1.16l.32.13c-.9,2.14-2.38,3.98-4.43,5.53s-4.75,2.33-8.1,2.38c-3,0-5.6-.67-7.81-2.02-2.21-1.35-3.92-3.27-5.14-5.75s-1.83-5.4-1.83-8.74.61-6.24,1.83-8.71c1.22-2.46,2.93-4.38,5.14-5.75,2.21-1.37,4.81-2.06,7.81-2.06,2.14,0,4.02.34,5.62,1.03,1.61.69,2.96,1.6,4.05,2.73,1.09,1.14,1.94,2.39,2.54,3.76l.26-7.07ZM1664.47,918.61c0,4.03,1.04,7.22,3.12,9.58,2.08,2.36,4.92,3.53,8.51,3.53,2.18,0,4.14-.54,5.88-1.61,1.73-1.07,3.09-2.59,4.08-4.56.99-1.97,1.48-4.28,1.48-6.94s-.49-5.02-1.48-6.97c-.99-1.95-2.35-3.46-4.08-4.53-1.74-1.07-3.7-1.61-5.88-1.61-3.56,0-6.38,1.19-8.48,3.57-2.1,2.38-3.15,5.56-3.15,9.54Z"/>
      <path d="M1721.53,902.54v-9h3.66v9h9v3.41h-9v18.96c0,1.89.44,3.34,1.32,4.37.88,1.03,2,1.68,3.37,1.96,1.37.28,2.81.29,4.31.03v3.15c-1.54.39-3.08.49-4.59.32-1.52-.17-2.89-.65-4.11-1.45-1.22-.79-2.18-1.87-2.89-3.25-.71-1.37-1.06-3.08-1.06-5.14v-18.96h-5.01v-3.41h5.01Z"/>
      <path d="M1741.71,888.4h3.66v19.86c.94-2.01,2.36-3.54,4.24-4.59,1.88-1.05,4.05-1.57,6.49-1.57s4.46.53,6.3,1.57c1.84,1.05,3.29,2.62,4.34,4.72,1.05,2.1,1.57,4.78,1.57,8.03v18.25h-3.86v-17.93c0-3.64-.79-6.43-2.38-8.35s-3.86-2.89-6.81-2.89-5.45,1.05-7.23,3.15c-1.78,2.1-2.67,5.18-2.67,9.25v16.77h-3.66v-46.27Z"/>
      <path d="M1780.78,895.34c-.81,0-1.48-.26-1.99-.77-.51-.51-.77-1.16-.77-1.93,0-.81.26-1.48.77-1.99s1.18-.77,1.99-.77c.73,0,1.36.26,1.9.77.54.51.8,1.18.8,1.99s-.27,1.41-.8,1.93c-.54.51-1.17.77-1.9.77ZM1778.91,902.54h3.6v32.13h-3.6v-32.13Z"/>
      <path d="M1793.69,902.54h3.41l.19,5.85c.9-1.97,2.24-3.51,4.02-4.63,1.78-1.11,3.95-1.67,6.52-1.67,2.4,0,4.53.53,6.39,1.57,1.86,1.05,3.32,2.61,4.37,4.69,1.05,2.08,1.57,4.72,1.57,7.94v18.38h-3.66v-17.99c0-3.64-.81-6.43-2.44-8.35s-3.9-2.89-6.81-2.89c-3.08,0-5.5,1.03-7.26,3.08-1.76,2.06-2.63,5.12-2.63,9.19v16.96h-3.66v-32.13Z"/>
      <path d="M1855.06,902.54h3.41v25.7c0,4.07-.88,7.54-2.63,10.41-1.76,2.87-4.29,5.07-7.61,6.59-3.32,1.52-7.38,2.28-12.18,2.28l-.58-3.41c6.3-.04,11.09-1.41,14.39-4.11,3.3-2.7,4.95-6.62,4.95-11.76v-1.16l.32.13c-.9,2.14-2.38,3.98-4.43,5.53s-4.75,2.33-8.1,2.38c-3,0-5.6-.67-7.81-2.02-2.21-1.35-3.92-3.27-5.14-5.75s-1.83-5.4-1.83-8.74.61-6.24,1.83-8.71c1.22-2.46,2.93-4.38,5.14-5.75,2.21-1.37,4.81-2.06,7.81-2.06,2.14,0,4.02.34,5.62,1.03,1.61.69,2.96,1.6,4.05,2.73,1.09,1.14,1.94,2.39,2.54,3.76l.26-7.07ZM1831.73,918.61c0,4.03,1.04,7.22,3.12,9.58,2.08,2.36,4.92,3.53,8.51,3.53,2.18,0,4.14-.54,5.88-1.61,1.73-1.07,3.09-2.59,4.08-4.56.99-1.97,1.48-4.28,1.48-6.94s-.49-5.02-1.48-6.97c-.99-1.95-2.35-3.46-4.08-4.53-1.74-1.07-3.7-1.61-5.88-1.61-3.56,0-6.38,1.19-8.48,3.57-2.1,2.38-3.15,5.56-3.15,9.54Z"/>
      <path d="M1870.09,925.29c.3,1.41.8,2.59,1.51,3.53.71.94,1.66,1.65,2.86,2.12,1.2.47,2.63.71,4.31.71,2.66,0,4.66-.52,6.01-1.57,1.35-1.05,2.02-2.37,2.02-3.95,0-1.33-.4-2.38-1.19-3.15-.79-.77-1.83-1.39-3.12-1.86-1.29-.47-2.68-.88-4.18-1.22-1.03-.26-2.19-.56-3.47-.9-1.29-.34-2.52-.82-3.69-1.45-1.18-.62-2.14-1.44-2.89-2.44-.75-1.01-1.12-2.35-1.12-4.02,0-1.8.49-3.37,1.48-4.72s2.35-2.4,4.08-3.15c1.73-.75,3.72-1.12,5.94-1.12,2.66,0,5.01.58,7.07,1.74,2.06,1.16,3.47,3,4.24,5.53l-3.41,1.16c-.39-1.37-1.02-2.41-1.9-3.12-.88-.71-1.85-1.19-2.92-1.45-1.07-.26-2.12-.38-3.15-.38-2.27,0-4.09.46-5.46,1.38-1.37.92-2.06,2.24-2.06,3.95,0,.99.23,1.8.71,2.44.47.64,1.1,1.16,1.9,1.54.79.39,1.7.71,2.73.96,1.03.26,2.1.51,3.21.77,1.24.3,2.51.66,3.79,1.09,1.29.43,2.48.99,3.6,1.67,1.11.69,2.01,1.56,2.7,2.63.68,1.07,1.03,2.42,1.03,4.05,0,1.84-.5,3.45-1.51,4.82-1.01,1.37-2.4,2.42-4.18,3.15-1.78.73-3.87,1.09-6.27,1.09-3.26,0-5.92-.72-8-2.15-2.08-1.43-3.46-3.61-4.14-6.52l3.47-1.16Z"/>
      <path d="M1919,902.54v-9h3.66v9h9v3.41h-9v18.96c0,1.89.44,3.34,1.32,4.37.88,1.03,2,1.68,3.37,1.96,1.37.28,2.81.29,4.31.03v3.15c-1.54.39-3.08.49-4.59.32-1.52-.17-2.89-.65-4.11-1.45-1.22-.79-2.18-1.87-2.89-3.25-.71-1.37-1.06-3.08-1.06-5.14v-18.96h-5.01v-3.41h5.01Z"/>
      <path d="M1939.17,888.4h3.66v19.86c.94-2.01,2.36-3.54,4.24-4.59,1.88-1.05,4.05-1.57,6.49-1.57s4.46.53,6.3,1.57c1.84,1.05,3.29,2.62,4.34,4.72,1.05,2.1,1.57,4.78,1.57,8.03v18.25h-3.86v-17.93c0-3.64-.79-6.43-2.38-8.35s-3.86-2.89-6.81-2.89-5.45,1.05-7.23,3.15c-1.78,2.1-2.67,5.18-2.67,9.25v16.77h-3.66v-46.27Z"/>
      <path d="M1996.17,934.67l-.26-6.81c-.9,2.31-2.3,4.1-4.21,5.37-1.91,1.26-4.32,1.9-7.23,1.9-2.31,0-4.28-.35-5.91-1.06-1.63-.71-2.88-1.72-3.76-3.05-.88-1.33-1.32-2.91-1.32-4.75,0-2.7,1.01-4.89,3.02-6.59,2.01-1.69,5.01-2.73,9-3.12l10.41-1.16v-2.7c0-2.23-.74-3.97-2.22-5.24-1.48-1.26-3.52-1.9-6.14-1.9s-4.55.58-6.2,1.73c-1.65,1.16-2.75,2.81-3.31,4.95l-3.34-1.16c.81-2.87,2.33-5.09,4.56-6.65,2.23-1.56,5.01-2.35,8.35-2.35,3.77,0,6.7.94,8.8,2.83,2.1,1.88,3.15,4.48,3.15,7.78v21.98h-3.41ZM1995.91,918.54l-10.47,1.22c-2.74.3-4.77.97-6.07,2.02s-1.96,2.47-1.96,4.27.63,3.21,1.9,4.24c1.26,1.03,3.07,1.54,5.43,1.54,2.48,0,4.55-.5,6.2-1.51,1.65-1.01,2.89-2.4,3.73-4.18.84-1.78,1.25-3.78,1.25-6.01v-1.61Z"/>
      <path d="M2011.46,902.54v-9h3.66v9h9v3.41h-9v18.96c0,1.89.44,3.34,1.32,4.37.88,1.03,2,1.68,3.37,1.96,1.37.28,2.81.29,4.31.03v3.15c-1.54.39-3.08.49-4.59.32-1.52-.17-2.89-.65-4.11-1.45-1.22-.79-2.18-1.87-2.89-3.25-.71-1.37-1.06-3.08-1.06-5.14v-18.96h-5.01v-3.41h5.01Z"/>
      <path d="M2049.63,902.54h3.41l.26,5.85c.81-1.88,2.06-3.41,3.73-4.56,1.67-1.16,3.81-1.74,6.43-1.74,2.4,0,4.56.62,6.49,1.86s3.36,3.13,4.3,5.65c.9-2.57,2.38-4.47,4.43-5.69,2.06-1.22,4.37-1.83,6.94-1.83,2.36,0,4.46.53,6.3,1.57,1.84,1.05,3.28,2.62,4.31,4.72,1.03,2.1,1.54,4.73,1.54,7.9v18.38h-3.66v-17.99c0-3.64-.79-6.42-2.38-8.32-1.59-1.91-3.81-2.86-6.68-2.86s-5.3,1.05-7.04,3.15c-1.74,2.1-2.6,5.18-2.6,9.25v16.77h-3.73v-17.99c0-3.64-.76-6.42-2.28-8.32-1.52-1.91-3.72-2.86-6.59-2.86s-5.28,1.05-6.97,3.15c-1.69,2.1-2.54,5.18-2.54,9.25v16.77h-3.66v-32.13Z"/>
      <path d="M2128.16,934.67l-.26-6.81c-.9,2.31-2.3,4.1-4.21,5.37-1.91,1.26-4.32,1.9-7.23,1.9-2.31,0-4.28-.35-5.91-1.06-1.63-.71-2.88-1.72-3.76-3.05-.88-1.33-1.32-2.91-1.32-4.75,0-2.7,1.01-4.89,3.02-6.59,2.01-1.69,5.01-2.73,9-3.12l10.41-1.16v-2.7c0-2.23-.74-3.97-2.22-5.24-1.48-1.26-3.52-1.9-6.14-1.9s-4.55.58-6.2,1.73c-1.65,1.16-2.75,2.81-3.31,4.95l-3.34-1.16c.81-2.87,2.33-5.09,4.56-6.65,2.23-1.56,5.01-2.35,8.35-2.35,3.77,0,6.7.94,8.8,2.83,2.1,1.88,3.15,4.48,3.15,7.78v21.98h-3.41ZM2127.9,918.54l-10.47,1.22c-2.74.3-4.77.97-6.07,2.02s-1.96,2.47-1.96,4.27.63,3.21,1.9,4.24c1.26,1.03,3.07,1.54,5.43,1.54,2.48,0,4.55-.5,6.2-1.51,1.65-1.01,2.89-2.4,3.73-4.18.84-1.78,1.25-3.78,1.25-6.01v-1.61Z"/>
      <path d="M2141.33,888.4h3.73v28.53h3.28l13.43-14.39h5.21l-15.42,16,15.55,16.13h-5.21l-13.56-14.52h-3.28v14.52h-3.73v-46.27Z"/>
      <path d="M2185.35,935.12c-3,0-5.65-.72-7.94-2.15-2.29-1.43-4.08-3.42-5.37-5.94s-1.93-5.44-1.93-8.74c0-3.13.65-5.91,1.96-8.35,1.31-2.44,3.09-4.36,5.37-5.75,2.27-1.39,4.86-2.09,7.78-2.09s5.43.63,7.68,1.9c2.25,1.26,4.01,3,5.27,5.21,1.26,2.21,1.87,4.72,1.83,7.55,0,.43-.01.89-.03,1.38-.02.49-.05,1.02-.1,1.57h-25.77c.04,2.36.56,4.43,1.54,6.23.98,1.8,2.3,3.2,3.95,4.21,1.65,1.01,3.52,1.51,5.62,1.51,2.66,0,4.94-.55,6.84-1.64,1.91-1.09,3.29-2.64,4.14-4.66l3.15,1.29c-1.2,2.74-3.02,4.84-5.46,6.3-2.44,1.46-5.29,2.19-8.55,2.19ZM2196.02,916.49c.04-2.14-.39-4.03-1.29-5.66-.9-1.63-2.17-2.91-3.82-3.86-1.65-.94-3.59-1.41-5.82-1.41-1.97,0-3.75.47-5.33,1.41-1.59.94-2.88,2.24-3.89,3.89-1.01,1.65-1.6,3.52-1.77,5.62h21.91Z"/>
      <path d="M2226.22,888.6h3.66v46.07h-3.66v-46.07Z"/>
      <path d="M2242.86,895.34c-.81,0-1.48-.26-1.99-.77-.51-.51-.77-1.16-.77-1.93,0-.81.26-1.48.77-1.99s1.18-.77,1.99-.77c.73,0,1.36.26,1.9.77.54.51.8,1.18.8,1.99s-.27,1.41-.8,1.93c-.54.51-1.17.77-1.9.77ZM2241,902.54h3.6v32.13h-3.6v-32.13Z"/>
      <path d="M2257.77,898.56c0-2.27.36-4.21,1.09-5.82.73-1.61,1.92-2.78,3.57-3.53,1.65-.75,3.84-1.02,6.59-.8v3.34c-2.87-.21-4.85.27-5.94,1.45-1.09,1.18-1.64,2.97-1.64,5.37v3.98h7.78v3.47h-7.78v28.66h-3.66v-28.66h-4.88v-3.47h4.88v-3.98Z"/>
      <path d="M2289.19,935.12c-3,0-5.65-.72-7.94-2.15-2.29-1.43-4.08-3.42-5.37-5.94s-1.93-5.44-1.93-8.74c0-3.13.65-5.91,1.96-8.35,1.31-2.44,3.09-4.36,5.37-5.75,2.27-1.39,4.86-2.09,7.78-2.09s5.43.63,7.68,1.9c2.25,1.26,4.01,3,5.27,5.21,1.26,2.21,1.87,4.72,1.83,7.55,0,.43-.01.89-.03,1.38-.02.49-.05,1.02-.1,1.57h-25.77c.04,2.36.56,4.43,1.54,6.23.98,1.8,2.3,3.2,3.95,4.21,1.65,1.01,3.52,1.51,5.62,1.51,2.66,0,4.94-.55,6.84-1.64,1.91-1.09,3.29-2.64,4.14-4.66l3.15,1.29c-1.2,2.74-3.02,4.84-5.46,6.3-2.44,1.46-5.29,2.19-8.55,2.19ZM2299.86,916.49c.04-2.14-.39-4.03-1.29-5.66-.9-1.63-2.17-2.91-3.82-3.86-1.65-.94-3.59-1.41-5.82-1.41-1.97,0-3.75.47-5.33,1.41-1.59.94-2.88,2.24-3.89,3.89-1.01,1.65-1.6,3.52-1.77,5.62h21.91Z"/>
      <path d="M2343.23,935.12c-3,0-5.65-.72-7.94-2.15-2.29-1.43-4.08-3.42-5.37-5.94s-1.93-5.44-1.93-8.74c0-3.13.65-5.91,1.96-8.35,1.31-2.44,3.09-4.36,5.37-5.75,2.27-1.39,4.86-2.09,7.78-2.09s5.43.63,7.68,1.9c2.25,1.26,4.01,3,5.27,5.21,1.26,2.21,1.87,4.72,1.83,7.55,0,.43-.01.89-.03,1.38-.02.49-.05,1.02-.1,1.57h-25.77c.04,2.36.56,4.43,1.54,6.23.98,1.8,2.3,3.2,3.95,4.21,1.65,1.01,3.52,1.51,5.62,1.51,2.66,0,4.94-.55,6.84-1.64,1.91-1.09,3.29-2.64,4.14-4.66l3.15,1.29c-1.2,2.74-3.02,4.84-5.46,6.3-2.44,1.46-5.29,2.19-8.55,2.19ZM2353.9,916.49c.04-2.14-.39-4.03-1.29-5.66-.9-1.63-2.17-2.91-3.82-3.86-1.65-.94-3.59-1.41-5.82-1.41-1.97,0-3.75.47-5.33,1.41-1.59.94-2.88,2.24-3.89,3.89-1.01,1.65-1.6,3.52-1.77,5.62h21.91Z"/>
      <path d="M2386.8,934.67l-.26-6.81c-.9,2.31-2.3,4.1-4.21,5.37-1.91,1.26-4.32,1.9-7.23,1.9-2.31,0-4.28-.35-5.91-1.06-1.63-.71-2.88-1.72-3.76-3.05-.88-1.33-1.32-2.91-1.32-4.75,0-2.7,1.01-4.89,3.02-6.59,2.01-1.69,5.01-2.73,9-3.12l10.41-1.16v-2.7c0-2.23-.74-3.97-2.22-5.24-1.48-1.26-3.52-1.9-6.14-1.9s-4.55.58-6.2,1.73c-1.65,1.16-2.75,2.81-3.31,4.95l-3.34-1.16c.81-2.87,2.33-5.09,4.56-6.65,2.23-1.56,5.01-2.35,8.35-2.35,3.77,0,6.7.94,8.8,2.83,2.1,1.88,3.15,4.48,3.15,7.78v21.98h-3.41ZM2386.54,918.54l-10.47,1.22c-2.74.3-4.77.97-6.07,2.02s-1.96,2.47-1.96,4.27.63,3.21,1.9,4.24c1.26,1.03,3.07,1.54,5.43,1.54,2.48,0,4.55-.5,6.2-1.51,1.65-1.01,2.89-2.4,3.73-4.18.84-1.78,1.25-3.78,1.25-6.01v-1.61Z"/>
      <path d="M2401.39,925.29c.3,1.41.8,2.59,1.51,3.53.71.94,1.66,1.65,2.86,2.12,1.2.47,2.63.71,4.31.71,2.66,0,4.66-.52,6.01-1.57,1.35-1.05,2.02-2.37,2.02-3.95,0-1.33-.4-2.38-1.19-3.15-.79-.77-1.83-1.39-3.12-1.86-1.29-.47-2.68-.88-4.18-1.22-1.03-.26-2.19-.56-3.47-.9-1.29-.34-2.52-.82-3.69-1.45-1.18-.62-2.14-1.44-2.89-2.44-.75-1.01-1.12-2.35-1.12-4.02,0-1.8.49-3.37,1.48-4.72s2.35-2.4,4.08-3.15c1.73-.75,3.72-1.12,5.94-1.12,2.66,0,5.01.58,7.07,1.74,2.06,1.16,3.47,3,4.24,5.53l-3.41,1.16c-.39-1.37-1.02-2.41-1.9-3.12-.88-.71-1.85-1.19-2.92-1.45-1.07-.26-2.12-.38-3.15-.38-2.27,0-4.09.46-5.46,1.38-1.37.92-2.06,2.24-2.06,3.95,0,.99.23,1.8.71,2.44.47.64,1.1,1.16,1.9,1.54.79.39,1.7.71,2.73.96,1.03.26,2.1.51,3.21.77,1.24.3,2.51.66,3.79,1.09,1.29.43,2.48.99,3.6,1.67,1.11.69,2.01,1.56,2.7,2.63.68,1.07,1.03,2.42,1.03,4.05,0,1.84-.5,3.45-1.51,4.82-1.01,1.37-2.4,2.42-4.18,3.15-1.78.73-3.87,1.09-6.27,1.09-3.26,0-5.92-.72-8-2.15-2.08-1.43-3.46-3.61-4.14-6.52l3.47-1.16Z"/>
      <path d="M2432.94,895.34c-.81,0-1.48-.26-1.99-.77-.51-.51-.77-1.16-.77-1.93,0-.81.26-1.48.77-1.99s1.18-.77,1.99-.77c.73,0,1.36.26,1.9.77.54.51.8,1.18.8,1.99s-.27,1.41-.8,1.93c-.54.51-1.17.77-1.9.77ZM2431.07,902.54h3.6v32.13h-3.6v-32.13Z"/>
      <path d="M2459.03,935.12c-3,0-5.65-.72-7.94-2.15-2.29-1.43-4.08-3.42-5.37-5.94s-1.93-5.44-1.93-8.74c0-3.13.65-5.91,1.96-8.35,1.31-2.44,3.09-4.36,5.37-5.75,2.27-1.39,4.86-2.09,7.78-2.09s5.43.63,7.68,1.9c2.25,1.26,4.01,3,5.27,5.21,1.26,2.21,1.87,4.72,1.83,7.55,0,.43-.01.89-.03,1.38-.02.49-.05,1.02-.1,1.57h-25.77c.04,2.36.56,4.43,1.54,6.23.98,1.8,2.3,3.2,3.95,4.21,1.65,1.01,3.52,1.51,5.62,1.51,2.66,0,4.94-.55,6.84-1.64,1.91-1.09,3.29-2.64,4.14-4.66l3.15,1.29c-1.2,2.74-3.02,4.84-5.46,6.3-2.44,1.46-5.29,2.19-8.55,2.19ZM2469.69,916.49c.04-2.14-.39-4.03-1.29-5.66-.9-1.63-2.17-2.91-3.82-3.86-1.65-.94-3.59-1.41-5.82-1.41-1.97,0-3.75.47-5.33,1.41-1.59.94-2.88,2.24-3.89,3.89-1.01,1.65-1.6,3.52-1.77,5.62h21.91Z"/>
      <path d="M2481.9,902.54h3.41l.19,5.72c.73-1.33,1.71-2.48,2.96-3.47,1.24-.99,2.66-1.69,4.24-2.12,1.58-.43,3.32-.47,5.21-.13v3.66c-1.84-.39-3.51-.38-5.01.03-1.5.41-2.79,1.12-3.89,2.15-1.09,1.03-1.94,2.31-2.54,3.86-.6,1.54-.9,3.3-.9,5.27v17.16h-3.66v-32.13Z"/>
      <path d="M2506.64,934.93c-.81,0-1.49-.28-2.02-.83-.54-.56-.8-1.24-.8-2.06s.27-1.5.8-2.06c.54-.56,1.21-.83,2.02-.83.77,0,1.43.28,1.99.83.56.56.84,1.24.84,2.06s-.28,1.5-.84,2.06c-.56.56-1.22.83-1.99.83Z"/>
    </g>
  </g>
  <g>
    <path class="cls-14" d="M2416,597.3c-.76-.16-1.51-.38-2.26-.64-.73-.25-1.46-.55-2.17-.88-1.42-.66-2.79-1.47-4.07-2.4-2.57-1.87-4.79-4.29-6.39-7.09-1.6-2.8-2.56-5.96-2.78-9.11-.11-1.58-.05-3.16.17-4.7.12-.77.27-1.53.47-2.28.19-.75.43-1.48.72-2.2l.2,2.28c.07.75.16,1.49.25,2.22.2,1.46.45,2.9.79,4.29.68,2.79,1.69,5.43,3.09,7.87,1.39,2.44,3.16,4.68,5.19,6.76,1.02,1.04,2.1,2.03,3.24,3.01.57.48,1.15.96,1.74,1.44l1.8,1.44h.01Z"/>
    <path class="cls-14" d="M2415.54,603.21c-.56.25-1.13.45-1.71.61-.58.17-1.18.29-1.78.39-1.2.2-2.43.26-3.66.2-2.47-.12-4.96-.8-7.18-2.01s-4.15-2.93-5.55-4.97c-.7-1.02-1.27-2.1-1.71-3.22-.21-.57-.39-1.14-.54-1.72-.14-.58-.25-1.17-.3-1.77.41.45.79.9,1.18,1.33.38.44.76.87,1.14,1.28.76.83,1.54,1.62,2.33,2.35,1.6,1.46,3.29,2.69,5.13,3.7,1.84,1,3.82,1.76,5.93,2.36,1.05.3,2.14.56,3.25.79.56.12,1.12.23,1.7.34.57.11,1.15.22,1.75.35h.02Z"/>
    <path class="cls-14" d="M2452.19,524.26c.78.2,1.54.46,2.29.76.74.29,1.47.64,2.18,1,1.43.74,2.79,1.63,4.05,2.64,2.53,2.01,4.68,4.56,6.17,7.46,1.49,2.89,2.29,6.11,2.33,9.29.02,1.59-.13,3.17-.45,4.7-.17.77-.36,1.53-.61,2.26-.25.74-.53,1.46-.87,2.17l-.08-2.29c-.03-.76-.08-1.51-.14-2.25-.11-1.48-.29-2.93-.56-4.34-.54-2.84-1.43-5.54-2.73-8.06-1.29-2.53-2.98-4.87-4.94-7.06-.99-1.1-2.05-2.15-3.16-3.19-.55-.52-1.13-1.03-1.71-1.54l-1.77-1.54h0Z"/>
    <path class="cls-14" d="M2466.43,523.51c.58.16,1.13.37,1.68.61.54.24,1.07.51,1.59.81,1.03.6,1.99,1.31,2.88,2.12,1.77,1.62,3.21,3.65,4.09,5.91.9,2.26,1.23,4.72.95,7.07-.14,1.18-.41,2.33-.81,3.42-.2.55-.44,1.08-.71,1.6-.26.51-.57,1.01-.92,1.49-.02-.58-.01-1.15-.02-1.7,0-.56,0-1.11-.03-1.65-.03-1.08-.1-2.13-.23-3.16-.25-2.06-.72-4.01-1.46-5.88-.73-1.87-1.73-3.66-2.92-5.4-.6-.87-1.25-1.73-1.93-2.6-.34-.43-.69-.86-1.06-1.3-.36-.44-.73-.88-1.09-1.34h-.01Z"/>
    <path class="cls-8" d="M2406.14,547.72c-3.2,1.52-4.42,5.32-2.88,8.56l20.48,42.8,11.35-5.42-20.48-42.8c-1.55-3.23-5.28-4.67-8.47-3.14h0Z"/>
    <path class="cls-8" d="M2459.98,581.77l12.08-5.77-23.36-48.82c-1.57-3.27-5.57-4.71-8.9-3.12h-.03c-3.32,1.61-4.72,5.62-3.11,8.99l23.31,48.72h.01Z"/>
    <path class="cls-16" d="M2439.81,524.07h-.03c-.36.19-.69.4-1,.63,3.06-.84,6.38.61,7.78,3.52l23.36,48.81,2.15-1.03-23.36-48.82c-1.57-3.27-5.57-4.71-8.9-3.12h0Z"/>
    <path class="cls-8" d="M2435.09,593.66l12.44-5.94-23.84-49.81c-1.67-3.48-5.8-4.97-9.23-3.34h-.02c-3.43,1.65-4.86,5.8-3.2,9.28l23.84,49.82h.01Z"/>
    <path class="cls-16" d="M2414.47,534.57h-.02c-.36.19-.69.4-1.01.63,3.16-.88,6.62.62,8.11,3.73l14.83,31,3.65,2.1-16.33-34.13c-1.67-3.48-5.8-4.97-9.23-3.34h0Z"/>
    <path class="cls-8" d="M2445.6,583.67l12.45-5.94-23.84-49.81c-1.66-3.48-5.79-4.97-9.22-3.33h-.02c-3.43,1.65-4.87,5.8-3.2,9.28l23.84,49.81h-.01Z"/>
    <path class="cls-16" d="M2424.98,524.58h-.02c-.37.18-.7.4-1.01.63,3.17-.88,6.62.62,8.11,3.73l16.77,35.04,3.64,2.1-18.27-38.17c-1.66-3.48-5.8-4.97-9.22-3.33h0Z"/>
    <path class="cls-16" d="M2406.14,547.72c-.37.18-.71.39-1.02.62,2.91-.75,5.98.69,7.34,3.55l12.18,25.45,3.65,2.09-13.67-28.57c-1.55-3.23-5.28-4.67-8.48-3.14Z"/>
    <path class="cls-8" d="M2488.6,542.96c-4.41-3.38-11.61.33-15.15,12.08-2.47,8.2-2.72,10.51-7.95,13l-2.87-5.99s-46.09,22.26-44.35,25.89c0,0,5.58,17.19,14.92,25.21,13.92,11.95,46.56-.86,48.04-31.78.87-18.23,12.19-34.71,7.36-38.41h0Z"/>
    <path class="cls-16" d="M2488.6,542.96c-.84-.64-1.77-1.02-2.77-1.15.21.12.42.24.61.4,4.83,3.7-.13,12.39-2.96,20.14-2.27,6.24-4.15,12.55-3.84,18.69,1.31,26.8-25.7,39.69-41.98,34.86,15.92,6.74,45.5-6.09,44.13-34.1-.3-6.15,1.49-12.13,3.84-18.69,2.78-7.78,7.78-16.44,2.96-20.15h.01Z"/>
    <path class="cls-16" d="M2467.05,567.22c-10.03,1.11-24.93,15.53-14.5,31.35-7.59-15.86,4.89-26.69,12.81-30.46.95-.45,1.69-.89,1.69-.89h0Z"/>
  </g>
</svg>