<?xml version="1.0" encoding="UTF-8"?><svg id="a" xmlns="http://www.w3.org/2000/svg" viewBox="0 0 4000 1803.7"><defs><style>.h{letter-spacing:-.04em;}.i{letter-spacing:-.02em;}.j{letter-spacing:-.02em;}.k{font-family:'Albert Sans',sans-serif;font-size:104px;font-variation-settings:'wght' 800;font-weight:800;color:#F2F2F2}.l,.m,.n,.o,.p,.q,.r,.s,.t,.u,.v,.w,.x,.y,.z,.aa,.ab,.ac,.ad,.ae,.af,.ag,.ah,.ai,.aj,.ak,.al,.am{stroke-width:0px;}.an{font-family:'Albert Sans',sans-serif;font-size:64.26px;font-variation-settings:'wght' 200;font-weight:200;color:#F2F2F2}.ao{letter-spacing:0em;}.ap{letter-spacing:0em;}.m{fill:#f2f2f2;}.n{fill:#767676;}.o{fill:#2b2b2b;}.p{fill:#888;}.q{fill:#898989;}.r{fill:#707070;}.s{fill:#3f3f3f;}.t{fill:#42ade2;}.u{fill:#202020;}.v{fill:#c4c4c4;}.w{fill:#afafaf;}.x{fill:#adadad;}.y{fill:#c8c8c8;}.z{fill:#bbb;}.aa{fill:#be1e2d;}.ab{fill:#b0b0b0;}.ac{fill:#aaa;}.ad{fill:#939393;}.ae{fill:#c2c2c2;}.af{fill:#8f8f8f;}.ag{fill:#8d8d8d;}.ah{fill:#8c8c8c;}.ai{fill:#9f9f9f;}.aj{fill:#818181;}.ak{fill:#fff;}.al{fill:#eba352;}.am{fill:#ffdd67;}</style></defs><g id="b"><path class="aa" d="m4000,1644.96H0V0h4000v1644.96Z"/></g><g id="c"><path class="m" d="m4000,1803.7H0v-576.89h4000v576.89Z"/></g><g id="d"><path class="v" d="m680.35,1319.89c0,8.01-109.01,14.5-243.47,14.5-134.47,0-243.47-6.49-243.47-14.5,0-8.01,109.01-14.5,243.47-14.5,134.47,0,243.47,6.49,243.47,14.5Z"/><path class="z" d="m320.26,855.08c84.37-118.06,168.74-236.12,253.11-354.18,9.18,7.61,18.36,15.22,27.54,22.83-86.51,121.06-173.02,242.11-259.53,363.17,38.99,137.84,77.97,275.68,116.96,413.52-11.08,3.64-22.17,7.27-33.25,10.91-36.58-129.33-73.16-258.66-109.73-387.99-4.15-14.66-8.3-29.32-12.44-43.98,5.78-8.09,11.57-16.19,17.35-24.28Z"/><ellipse class="ak" cx="750.79" cy="628.81" rx="101.33" ry="109.16"/><path class="ac" d="m782.64,663.11s0,0,0,0c28.03-30.2,28.03-79.16,0-109.36-35.16-37.88-70.32-75.75-105.48-113.63-28.03-30.2-73.48-30.2-101.52,0t0,0c-28.03,30.2-28.03,79.16,0,109.36,35.16,37.88,70.32,75.75,105.48,113.63,28.03,30.2,73.48,30.2,101.52,0Z"/><path class="ac" d="m650.14,520.39c76.68-82.61,201.01-82.61,277.7,0-92.57,99.72-185.13,199.43-277.7,299.14-76.68-82.61-76.68-216.54,0-299.14Z"/><path class="ac" d="m219.03,1319.93c145.23,0,290.46,0,435.69,0v-37.44c-145.23,0-290.46,0-435.69,0,0,12.48,0,24.96,0,37.44Z"/></g><g id="e"><path class="x" d="m3719.69,1355.44c0,9.82-162.78,17.78-363.57,17.78-200.79,0-363.57-7.96-363.57-17.78,0-9.82,162.78-17.78,363.57-17.78,200.79,0,363.57,7.96,363.57,17.78Z"/><path class="ak" d="m3320.26,742.84c-8.72,11.98-10.41,27.76-5.55,41.59,3.19,9.1,7.82,17.37,9.81,26.91,2.47,11.84-5.14,23.61-10.64,33.46-1.27,2.28-.62,5.56,1.79,6.84,2.36,1.24,5.48.65,6.84-1.79,3.79-6.8,7.53-13.73,9.89-21.17,2.39-7.54,2.93-15.46,1.09-23.18-.8-3.36-2.02-6.61-3.34-9.79-1.25-3.01-2.58-5.98-3.88-8.96-2.11-5.54-4.63-11.94-4.67-17.95-.04-5.52,1.71-11.2,4.27-16.06.89-1.69,1.91-3.29,3.02-4.83,1.54-2.12.43-5.67-1.79-6.84-2.6-1.37-5.19-.47-6.84,1.79Z"/><path class="ak" d="m3352.43,742.84c-8.71,11.98-10.41,27.76-5.55,41.59,3.19,9.1,7.82,17.37,9.81,26.91,2.47,11.84-5.14,23.61-10.64,33.46-1.27,2.28-.62,5.56,1.79,6.84,2.36,1.24,5.48.65,6.84-1.79,3.79-6.8,7.53-13.73,9.89-21.17,2.39-7.54,2.93-15.46,1.09-23.18-.8-3.36-2.02-6.61-3.34-9.79-1.25-3.01-2.57-5.98-3.88-8.96-2.11-5.54-4.63-11.94-4.67-17.95-.04-5.52,1.71-11.2,4.27-16.06.89-1.69,1.9-3.29,3.02-4.83,1.54-2.12.43-5.67-1.79-6.84-2.6-1.37-5.2-.47-6.84,1.79Z"/><path class="ak" d="m3385.88,742.84c-8.71,11.98-10.41,27.76-5.55,41.59,3.19,9.1,7.82,17.37,9.81,26.91,2.47,11.84-5.14,23.61-10.64,33.46-1.27,2.28-.63,5.56,1.79,6.84,2.36,1.24,5.48.65,6.84-1.79,3.79-6.8,7.53-13.73,9.89-21.17,2.39-7.54,2.93-15.46,1.09-23.18-.8-3.36-2.02-6.61-3.34-9.79-1.25-3.01-2.58-5.98-3.88-8.96-2.11-5.54-4.63-11.94-4.67-17.95-.04-5.52,1.72-11.2,4.27-16.06.89-1.69,1.9-3.29,3.02-4.83,1.54-2.12.43-5.67-1.79-6.84-2.6-1.37-5.19-.47-6.84,1.79Z"/><path class="ah" d="m3448.35,961.38c0-8.53,0-17.06,0-25.6,24.57,0,49.15,0,73.72,0,14.14,0,25.6,11.46,25.6,25.6,0,37.89,0,75.77,0,113.66,0,7.07-2.86,13.46-7.49,18.09-4.63,4.63-11.04,7.51-18.11,7.5-24.57,0-49.14,0-73.72,0,0-8.53,0-17.06,0-25.6h73.72c0-37.89,0-75.77,0-113.66-24.57,0-49.14,0-73.72,0Z"/><path class="n" d="m3356.12,868.28c-62.44,0-113.07,7.12-113.07,15.87,0,89.38,0,178.75,0,268.12,0,8.75,50.63,15.87,113.07,15.87,62.43,0,113.07-7.12,113.07-15.87v-268.12c0-8.75-50.64-15.87-113.07-15.87Z"/><path class="l" d="m3451.25,892.73c-20.12,4.39-55.21,7.29-95.13,7.29-39.92,0-75.01-2.91-95.12-7.29,20.12-4.39,55.2-7.29,95.12-7.29,39.92,0,75.01,2.91,95.13,7.29Z"/><path class="ai" d="m3356.12,900.03c-62.44,0-113.07-7.12-113.07-15.87,0,89.37,0,178.74,0,268.11,0,8.75,50.63,15.87,113.07,15.87,62.43,0,113.07-7.12,113.07-15.87v-268.11c0,8.75-50.64,15.87-113.07,15.87Z"/><path class="ah" d="m3469.19,1152.28v-268.11c0,1.46-1.42,2.88-4.06,4.22-18.04,39.9-95.79,197.69-222.08,258.94,0,1.65,0,3.31,0,4.96,0,8.75,50.62,15.87,113.07,15.87,62.43,0,113.07-7.12,113.07-15.87Z"/><path class="ai" d="m3683.05,1283.72c0,13.96,0,27.91,0,41.87,0,16.49-13.35,29.84-29.84,29.84-207.21,0-414.42,0-621.63,0,0-4.32,0-8.64,0-12.97,2.54,0,5.07,0,7.61,0v-75.63c-2.54,0-5.07,0-7.61,0,0-4.32,0-8.64,0-12.97,207.21,0,414.42,0,621.63,0,16.49,0,29.85,13.37,29.84,29.84Z"/><path class="ah" d="m3329.28,1283.72c0,13.96,0,27.91,0,41.87,0,16.49-13.35,29.84-29.84,29.84-89.28,0-178.57,0-267.85,0,0-4.32,0-8.64,0-12.97,2.54,0,5.07,0,7.61,0v-75.63c-2.54,0-5.07,0-7.61,0,0-4.32,0-8.64,0-12.97,89.29,0,178.57,0,267.85,0,16.49,0,29.84,13.37,29.84,29.84Z"/><path class="ak" d="m3293.94,1342.48c-84.91,0-169.83,0-254.74,0,0-25.21,0-50.42,0-75.63,84.92,0,169.83,0,254.74,0,12.37,0,22.38,10.02,22.38,22.38v30.87c0,12.36-10.02,22.38-22.38,22.38Z"/><path class="y" d="m3316.32,1289.23v3.86h-277.12v-5.07c92.36,0,184.73,0,277.09,0,.02.4.03.81.03,1.21Z"/><path class="y" d="m3316.32,1313.42v5.09h-277.12v-5.09h277.12Z"/><path class="y" d="m3315.63,1325.61c-.45,1.79-1.12,3.51-1.98,5.09h-274.45v-5.09h276.43Z"/><path class="p" d="m3670.25,1182.16c0,13.96,0,27.91,0,41.87,0,16.49-13.35,29.84-29.84,29.84h-621.63c0-4.32,0-8.65,0-12.97,2.54,0,5.07,0,7.61,0,0-25.21,0-50.42,0-75.63-2.54,0-5.07,0-7.61,0,0-4.32,0-8.64,0-12.97,207.21,0,414.42,0,621.63,0,16.49,0,29.85,13.37,29.84,29.84Z"/><path class="r" d="m3316.47,1182.16c0,13.96,0,27.91,0,41.87,0,16.49-13.35,29.84-29.84,29.84h-267.85c0-4.32,0-8.65,0-12.97,2.54,0,5.07,0,7.61,0,0-25.21,0-50.42,0-75.63-2.54,0-5.07,0-7.61,0,0-4.32,0-8.64,0-12.97,89.28,0,178.57,0,267.85,0,16.49,0,29.84,13.37,29.84,29.84Z"/><path class="ak" d="m3281.13,1240.91h-254.74c0-25.21,0-50.42,0-75.63h254.74c12.37,0,22.38,10.02,22.38,22.38,0,10.29,0,20.58,0,30.87,0,12.36-10.02,22.38-22.38,22.38Z"/><path class="y" d="m3303.51,1187.67v3.86c-92.37,0-184.75,0-277.12,0v-5.07h277.09c.01.4.03.81.03,1.21Z"/><path class="y" d="m3303.51,1211.86v5.09h-277.12v-5.09h277.12Z"/><path class="y" d="m3302.82,1224.05c-.45,1.79-1.12,3.51-1.98,5.09h-274.45v-5.09c92.14,0,184.29,0,276.43,0Z"/></g><g id="f"><path class="ae" d="m842.48,1312.63c0,5.31,54.98,9.62,122.79,9.62,67.82,0,122.79-4.31,122.79-9.62,0-5.31-54.98-9.62-122.79-9.62-67.82,0-122.79,4.31-122.79,9.62Z"/><path class="n" d="m876.92,820.07c51.6,83.7,81.75,178.53,87.33,274.63-1.92,19.51-3.84,39.02-5.76,58.52-19.81-40.42-39.65-80.92-54.84-123-15.19-42.08-25.7-85.93-26.27-130.27-.34-26.65,2.89-53.42-.46-79.89Z"/><path class="af" d="m907.25,1014.23c24.79,44.63,45.34,91.85,53.42,141.43-14.71-15.58-29.41-31.16-44.12-46.75-56.07-63.16-88.26-143.95-89.85-225.5,26.64,43.72,55.77,86.18,80.55,130.82Z"/><path class="aj" d="m949.65,790.08c16.28,44.78,51.97,81.84,68.63,126.51,12.6,33.8,13.68,70.55,8.38,105.95-5.27,35.41-16.7,69.77-28.61,103.78-18.02,8.97-36.04,17.94-54.05,26.91,1.27-48.97,2.5-98.08-2.55-146.84-3.78-36.49-11.1-72.68-12.76-109.31-1.66-36.62,2.71-74.42,20.97-107Z"/><path class="ad" d="m1024.97,953.97c11.03-27.43,27.25-52.86,45.07-77.07-.56,44-2.53,88.15-10.97,131.46-8.46,43.31-23.58,85.92-48.92,123.23-1.89,2.91-3.78,5.81-5.67,8.72-1.74-62.81-3.22-127.41,20.48-186.34Z"/><path class="w" d="m888.29,1296.41c51.32,0,102.65,0,153.97,0,23.38-74.14,46.76-148.28,70.14-222.42-98.08,0-196.16,0-294.25,0,23.38,74.14,46.76,148.28,70.14,222.42Z"/><path class="ag" d="m860.5,1312.76c69.85,0,139.7,0,209.55,0,0-7.44,0-14.88,0-22.32-69.85,0-139.7,0-209.55,0,0,7.44,0,14.88,0,22.32Z"/></g><g id="g"><path class="q" d="m2972.42,1548.71h-1945.12c-5.23,0-8.04-6.16-4.6-10.1,55.98-64.3,111.96-128.61,167.94-192.91h1618.44c55.98,64.3,111.96,128.6,167.94,192.91,3.44,3.95.63,10.1-4.6,10.1Z"/><path class="o" d="m2749.5,1208.3h-1499V300.62c0-20.51,16.33-37.14,36.47-37.14,475.35,0,950.71,0,1426.07,0,20.13,0,36.46,16.63,36.47,37.14,0,302.56,0,605.12,0,907.68Z"/><path class="ak" d="m2705.26,1119.73c-470.18,0-940.35,0-1410.53,0,0-258.86,0-517.72,0-776.57h1410.53c0,258.86,0,517.72,0,776.57Z"/><path class="u" d="m2962.03,1480.9c-83.18-94.62-153.03-174.09-212.53-241.78-499.66,0-999.33,0-1499,0-59.5,67.69-129.35,147.15-212.53,241.78-7.27,0-14.54,0-21.81,0,5.37,2.16,10.73,4.33,16.1,6.49,0,0,0,0,0,0,7.07,2.85,14.15,5.7,21.22,8.55,7.88,3.18,15.76,6.35,23.64,9.53,28.99,11.68,59.95,17.69,91.2,17.69h1663.47c31.25,0,62.21-6,91.2-17.69,14.93-6.02,29.85-12.03,44.78-18.05.03-.01.06-.03.09-.04,5.37-2.16,10.73-4.33,16.1-6.49-7.3,0-14.61,0-21.92,0Z"/><path class="ab" d="m2950.58,1486.53c-633.72,0-1267.44,0-1901.16,0-26.85,0-42.79-6.63-35.7-14.69,93.97-106.89,171.58-195.18,236.78-269.35,499.66,0,999.33,0,1499,0,65.2,74.16,142.81,162.46,236.78,269.35,7.1,8.07-8.85,14.69-35.7,14.69Z"/><path class="s" d="m2818.49,1387.45c-545.66,0-1091.32,0-1636.98,0,46.47-58.92,87.96-111.5,125.21-158.72,462.19,0,924.37,0,1386.57,0,37.25,47.22,78.73,99.8,125.21,158.72Z"/><path class="o" d="m2319.57,1373.59c-230.73,0-461.48,0-692.19,0,2.37-6.49,4.7-12.9,7-19.23.77-2.13,7.77-3.84,15.61-3.85,225.54,0,451.07,0,676.59,0,2.05,6.28,4.12,12.64,6.23,19.09.72,2.2-5.22,4-13.24,3.99Z"/><path class="o" d="m1327.14,1373.59c-29.85,0-59.7,0-89.56,0,4.84-6.49,9.61-12.9,14.33-19.23,1.58-2.13,9.22-3.84,17.08-3.85,29.19,0,58.36,0,87.54,0-4.04,6.28-8.13,12.64-12.27,19.09-1.43,2.2-9.07,4-17.11,3.99Z"/><path class="o" d="m1394.91,1270.49c-26.85,0-53.69,0-80.54,0,3.91-5.25,7.78-10.45,11.61-15.58,1.28-1.73,8.06-3.12,15.14-3.12,26.31,0,52.6,0,78.9,0-3.28,5.1-6.6,10.26-9.95,15.48-1.16,1.78-7.92,3.23-15.15,3.23Z"/><path class="o" d="m1516.4,1345.7h-258.05c4.57-6.14,9.1-12.22,13.56-18.21,1.5-2.02,8.91-3.64,16.55-3.64,84.13,0,168.27,0,252.39,0-2.81,5.95-5.64,11.97-8.52,18.07-.98,2.08-8.1,3.78-15.93,3.78Z"/><path class="o" d="m1490.02,1319.3c-70.67,0-141.34,0-212.01,0,4.34-5.82,8.62-11.58,12.86-17.27,1.42-1.91,8.61-3.46,16.05-3.46,69.16,0,138.33,0,207.48,0-2.89,5.64-5.81,11.36-8.77,17.14-1.01,1.97-8,3.58-15.6,3.58Z"/><path class="o" d="m2727.51,1345.7h-145.35c-3.59-6.14-7.14-12.22-10.65-18.21-1.18-2.02,4.06-3.64,11.7-3.64,47.39,0,94.78,0,142.16,0,4.44,5.95,8.93,11.97,13.46,18.07,1.56,2.08-3.52,3.78-11.33,3.78Z"/><path class="o" d="m1457.07,1373.59c-29.86,0-59.7,0-89.56,0,4.01-6.49,7.97-12.9,11.88-19.23,1.31-2.13,8.74-3.84,16.59-3.85,29.18,0,58.36,0,87.54,0-3.24,6.28-6.53,12.64-9.85,19.09-1.14,2.2-8.57,4-16.6,3.99Z"/><path class="o" d="m2449.5,1373.59c-29.85,0-59.7,0-89.56,0-2.27-6.49-4.52-12.9-6.76-19.23-.75-2.13,5-3.84,12.86-3.85,29.18,0,58.36,0,87.54,0,2.85,6.28,5.73,12.64,8.65,19.09,1.01,2.2-4.7,4-12.73,3.99Z"/><path class="o" d="m2555.86,1373.59c-21.99,0-44,0-65.99,0-1.09-2.26-2.17-4.52-3.24-6.76-1.05-2.18,4.55-3.94,12.5-3.94,21.76,0,43.53,0,65.29,0,1.25,2.23,2.49,4.46,3.74,6.71,1.22,2.2-4.29,4-12.31,3.99Z"/><path class="o" d="m1409.77,1247.88c-26.19,0-52.37,0-78.56,0,1.42-1.91,2.84-3.82,4.26-5.71,1.25-1.68,7.92-3.04,14.89-3.04,25.94,0,51.87,0,77.8,0-1.21,1.88-2.43,3.77-3.65,5.67-1.1,1.69-7.68,3.07-14.73,3.07Z"/><path class="o" d="m2656.04,1247.88c-26.2,0-52.36,0-78.56,0-1.23-1.91-2.46-3.82-3.67-5.71-1.08-1.68,3.7-3.04,10.68-3.04,25.94,0,51.87,0,77.8,0,1.41,1.88,2.82,3.77,4.23,5.67,1.27,1.69-3.42,3.07-10.46,3.07Z"/><path class="o" d="m2747.88,1373.59c-22,0-43.99,0-65.99,0-1.51-2.26-3.01-4.52-4.5-6.76-1.46-2.18,3.8-3.94,11.76-3.94,21.78,0,43.54,0,65.3,0,1.67,2.23,3.33,4.46,5,6.71,1.65,2.2-3.53,4-11.57,3.99Z"/><path class="o" d="m2651.87,1373.59c-22,0-43.99,0-65.99,0-1.3-2.26-2.58-4.52-3.87-6.76-1.26-2.18,4.19-3.94,12.13-3.94,21.77,0,43.52,0,65.3,0,1.45,2.23,2.9,4.46,4.37,6.71,1.44,2.2-3.91,4-11.94,3.99Z"/><path class="o" d="m2643.82,1360.95c-21.73,0-43.45,0-65.17,0-1.26-2.21-2.52-4.41-3.78-6.6-1.22-2.13,4.17-3.84,12.01-3.85,21.5,0,42.99,0,64.5,0,1.41,2.17,2.83,4.35,4.26,6.55,1.4,2.15-3.9,3.9-11.82,3.9Z"/><path class="o" d="m1587.01,1373.59c-29.85,0-59.71,0-89.56,0,3.19-6.49,6.34-12.9,9.44-19.23,1.04-2.13,8.25-3.84,16.1-3.85,29.18,0,58.36,0,87.54,0-2.44,6.28-4.92,12.64-7.43,19.09-.85,2.2-8.07,4-16.09,3.99Z"/><path class="o" d="m1650.46,1345.7h-87.12c2.7-6.14,5.37-12.22,7.99-18.21.87-2.02,7.8-3.64,15.43-3.64,28.41,0,56.81,0,85.21,0-2,5.95-4.03,11.97-6.09,18.07-.7,2.08-7.6,3.78-15.42,3.78Z"/><path class="o" d="m1776.86,1345.7h-87.12c1.91-6.14,3.81-12.22,5.67-18.21.62-2.02,7.33-3.64,14.97-3.64,28.4,0,56.81,0,85.21,0-1.26,5.95-2.52,11.97-3.79,18.07-.43,2.08-7.13,3.78-14.94,3.78Z"/><path class="o" d="m1432.65,1294.26c-45.34,0-90.67,0-135.99,0,4.12-5.53,8.19-10.99,12.21-16.39,1.35-1.82,8.32-3.28,15.58-3.28,44.38,0,88.77,0,133.16,0-3.14,5.36-6.33,10.79-9.55,16.28-1.1,1.87-8,3.4-15.41,3.4Z"/><path class="o" d="m2708.15,1319.21c-60.22,0-120.45,0-180.68,0-3.16-5.82-6.29-11.58-9.39-17.26-1.05-1.91,4.16-3.46,11.59-3.46,58.94,0,117.88,0,176.82,0,4.21,5.64,8.47,11.36,12.76,17.14,1.48,1.97-3.5,3.58-11.1,3.58Z"/><path class="o" d="m1903.25,1345.7h-87.12c1.14-6.14,2.26-12.22,3.36-18.21.38-2.02,6.87-3.64,14.51-3.64,28.4,0,56.81,0,85.21,0-.49,5.95-1,11.97-1.5,18.07-.17,2.08-6.64,3.78-14.46,3.78Z"/><path class="o" d="m2029.64,1345.7h-87.12c.35-6.14.7-12.22,1.05-18.21.12-2.02,6.42-3.64,14.04-3.64,28.4,0,56.8,0,85.21,0,.26,5.95.53,11.97.79,18.07.09,2.08-6.17,3.78-13.98,3.78Z"/><path class="o" d="m2156.03,1345.7h-87.12c-.42-6.14-.85-12.22-1.26-18.21-.14-2.02,5.94-3.64,13.58-3.64,28.4,0,56.8,0,85.21,0,1.02,5.95,2.05,11.97,3.09,18.07.35,2.08-5.69,3.78-13.5,3.78Z"/><path class="o" d="m2282.43,1345.7h-87.12c-1.21-6.14-2.4-12.22-3.57-18.21-.4-2.02,5.47-3.64,13.12-3.64,28.4,0,56.8,0,85.21,0,1.77,5.95,3.57,11.97,5.38,18.07.61,2.08-5.2,3.78-13.02,3.78Z"/><path class="o" d="m2408.82,1345.7h-87.12c-1.99-6.14-3.95-12.22-5.88-18.21-.65-2.02,5.02-3.64,12.66-3.64,28.4,0,56.8,0,85.21,0,2.52,5.95,5.08,11.97,7.68,18.07.89,2.08-4.73,3.78-12.54,3.78Z"/><path class="o" d="m2535.21,1345.7h-87.12c-2.77-6.14-5.5-12.22-8.19-18.21-.91-2.02,4.56-3.64,12.19-3.64,28.4,0,56.81,0,85.21,0,3.28,5.95,6.61,11.97,9.97,18.07,1.16,2.08-4.24,3.78-12.06,3.78Z"/><path class="o" d="m1620.54,1319.3c-28.27,0-56.54,0-84.81,0,2.79-5.82,5.55-11.58,8.27-17.27.92-1.91,7.7-3.46,15.13-3.46,27.68,0,55.32,0,83,0-2.14,5.64-4.29,11.36-6.47,17.14-.73,1.97-7.52,3.58-15.12,3.58Z"/><path class="o" d="m1743.57,1319.3c-28.27,0-56.54,0-84.81,0,2.05-5.82,4.08-11.58,6.08-17.27.68-1.91,7.25-3.46,14.69-3.46,27.67,0,55.33,0,83,0-1.41,5.64-2.84,11.36-4.29,17.14-.49,1.97-7.05,3.58-14.67,3.58Z"/><path class="o" d="m1866.62,1319.3c-28.27,0-56.54,0-84.81,0,1.31-5.82,2.6-11.58,3.89-17.27.42-1.91,6.82-3.46,14.25-3.46,27.67,0,55.33,0,83,0-.7,5.64-1.4,11.36-2.11,17.14-.24,1.97-6.6,3.58-14.21,3.58Z"/><path class="o" d="m1989.66,1319.3c-28.27,0-56.54,0-84.81,0,.57-5.82,1.14-11.58,1.69-17.27.2-1.91,6.37-3.46,13.82-3.46,27.67,0,55.33,0,83,0,.03,5.64.05,11.36.06,17.14.02,1.97-6.15,3.58-13.76,3.58Z"/><path class="o" d="m2112.7,1319.3c-28.27,0-56.54,0-84.81,0-.17-5.82-.33-11.58-.5-17.27-.05-1.91,5.94-3.46,13.38-3.46,27.67,0,55.34,0,83,0,.73,5.64,1.47,11.36,2.24,17.14.26,1.97-5.72,3.58-13.3,3.58Z"/><path class="o" d="m2235.74,1319.3c-28.27,0-56.54,0-84.81,0-.91-5.82-1.8-11.58-2.69-17.27-.3-1.91,5.49-3.46,12.94-3.46,27.65,0,55.34,0,83,0,1.45,5.64,2.92,11.36,4.41,17.14.51,1.97-5.24,3.58-12.85,3.58Z"/><path class="o" d="m2358.78,1319.3c-28.27,0-56.55,0-84.81,0-1.65-5.82-3.27-11.58-4.88-17.27-.53-1.91,5.04-3.46,12.5-3.46,27.66,0,55.33,0,83,0,2.18,5.64,4.38,11.36,6.59,17.14.75,1.97-4.8,3.58-12.39,3.58Z"/><path class="o" d="m2481.83,1319.3c-28.27,0-56.54,0-84.81,0-2.39-5.82-4.74-11.58-7.07-17.27-.78-1.91,4.61-3.46,12.06-3.46,27.66,0,55.34,0,83,0,2.89,5.64,5.8,11.36,8.76,17.14,1.02,1.97-4.34,3.58-11.94,3.58Z"/><path class="o" d="m1559.79,1294.26c-27.54,0-55.08,0-82.62,0,3.06-5.53,6.09-10.99,9.08-16.39,1-1.82,7.69-3.28,14.95-3.28,26.96,0,53.93,0,80.9,0-2.42,5.36-4.88,10.79-7.36,16.28-.85,1.87-7.55,3.4-14.95,3.4Z"/><path class="o" d="m1679.65,1294.26c-27.55,0-55.07,0-82.62,0,2.36-5.53,4.69-10.99,6.99-16.39.77-1.82,7.28-3.28,14.53-3.28,26.96,0,53.94,0,80.9,0-1.74,5.36-3.5,10.79-5.29,16.28-.61,1.87-7.11,3.4-14.52,3.4Z"/><path class="o" d="m1799.51,1294.26c-27.54,0-55.08,0-82.62,0,1.65-5.53,3.29-10.99,4.91-16.39.54-1.82,6.86-3.28,14.12-3.28,26.97,0,53.93,0,80.9,0-1.06,5.36-2.14,10.79-3.22,16.28-.37,1.87-6.68,3.4-14.09,3.4Z"/><path class="o" d="m1919.38,1294.26c-27.54,0-55.08,0-82.62,0,.96-5.53,1.9-10.99,2.83-16.39.32-1.82,6.45-3.28,13.7-3.28,26.97,0,53.94,0,80.9,0-.37,5.36-.76,10.79-1.16,16.28-.13,1.87-6.25,3.4-13.65,3.4Z"/><path class="o" d="m2039.24,1294.26c-27.54,0-55.08,0-82.62,0,.25-5.53.5-10.99.75-16.39.08-1.82,6.04-3.28,13.28-3.28,26.96,0,53.94,0,80.9,0,.31,5.36.61,10.79.91,16.28.12,1.87-5.81,3.4-13.22,3.4Z"/><path class="o" d="m2159.1,1294.26c-27.54,0-55.08,0-82.62,0-.45-5.53-.89-10.99-1.33-16.39-.14-1.82,5.62-3.28,12.87-3.28,26.97,0,53.93,0,80.9,0,.98,5.36,1.97,10.79,2.97,16.28.34,1.87-5.38,3.4-12.79,3.4Z"/><path class="o" d="m2278.97,1294.26c-27.54,0-55.09,0-82.62,0-1.15-5.53-2.28-10.99-3.41-16.39-.37-1.82,5.19-3.28,12.45-3.28,26.97,0,53.94,0,80.9,0,1.66,5.36,3.34,10.79,5.04,16.28.58,1.87-4.96,3.4-12.36,3.4Z"/><path class="o" d="m2398.83,1294.26c-27.54,0-55.07,0-82.62,0-1.85-5.53-3.68-10.99-5.49-16.39-.61-1.82,4.78-3.28,12.03-3.28,26.95,0,53.93,0,80.9,0,2.34,5.36,4.71,10.79,7.11,16.28.81,1.87-4.52,3.4-11.93,3.4Z"/><path class="o" d="m2519.38,1294.26c-27.54,0-55.08,0-82.62,0-2.55-5.53-5.08-10.99-7.58-16.39-.84-1.82,4.37-3.28,11.62-3.28,26.97,0,53.93,0,80.9,0,3.03,5.36,6.09,10.79,9.18,16.28,1.05,1.87-4.08,3.4-11.49,3.4Z"/><path class="o" d="m1518.85,1270.49c-26.85,0-53.7,0-80.54,0,3.2-5.25,6.37-10.45,9.51-15.58,1.05-1.73,7.64-3.12,14.72-3.12,26.3,0,52.6,0,78.9,0-2.59,5.1-5.21,10.26-7.87,15.48-.9,1.78-7.5,3.23-14.72,3.23Z"/><path class="o" d="m1635.69,1270.49c-26.85,0-53.69,0-80.54,0,2.54-5.25,5.05-10.45,7.53-15.58.84-1.73,7.24-3.12,14.32-3.12,26.3,0,52.6,0,78.9,0-1.95,5.1-3.92,10.26-5.9,15.48-.69,1.78-7.08,3.23-14.31,3.23Z"/><path class="o" d="m1752.54,1270.49c-26.85,0-53.68,0-80.54,0,1.88-5.25,3.73-10.45,5.55-15.58.61-1.73,6.86-3.12,13.92-3.12,26.29,0,52.6,0,78.9,0-1.3,5.1-2.61,10.26-3.94,15.48-.45,1.78-6.68,3.23-13.9,3.23Z"/><path class="o" d="m1869.38,1270.49c-26.85,0-53.69,0-80.54,0,1.21-5.25,2.4-10.45,3.57-15.58.39-1.73,6.46-3.12,13.53-3.12,26.3,0,52.6,0,78.9,0-.66,5.1-1.31,10.26-1.98,15.48-.23,1.78-6.27,3.23-13.49,3.23Z"/><path class="o" d="m1986.23,1270.49c-26.85,0-53.69,0-80.54,0,.54-5.25,1.07-10.45,1.6-15.58.18-1.73,6.06-3.12,13.13-3.12,26.29,0,52.61,0,78.9,0,0,5.1,0,10.26-.01,15.48-.01,1.78-5.85,3.23-13.08,3.23Z"/><path class="o" d="m2103.07,1270.49c-26.86,0-53.69,0-80.54,0-.13-5.25-.25-10.45-.38-15.58-.04-1.73,5.66-3.12,12.74-3.12,26.3,0,52.6,0,78.9,0,.64,5.1,1.29,10.26,1.95,15.48.22,1.78-5.43,3.23-12.67,3.23Z"/><path class="o" d="m2219.92,1270.49c-26.86,0-53.68,0-80.54,0-.8-5.25-1.58-10.45-2.36-15.58-.26-1.73,5.26-3.12,12.34-3.12,26.31,0,52.6,0,78.9,0,1.29,5.1,2.6,10.26,3.92,15.48.44,1.78-5.03,3.23-12.26,3.23Z"/><path class="o" d="m2336.77,1270.49c-26.84,0-53.7,0-80.54,0-1.46-5.25-2.91-10.45-4.34-15.58-.49-1.73,4.88-3.12,11.94-3.12,26.3,0,52.6,0,78.9,0,1.94,5.1,3.9,10.26,5.88,15.48.68,1.78-4.62,3.23-11.85,3.23Z"/><path class="o" d="m2454.28,1270.49c-26.85,0-53.69,0-80.54,0-2.14-5.25-4.25-10.45-6.33-15.58-.71-1.73,4.48-3.12,11.54-3.12,26.3,0,52.6,0,78.9,0,2.59,5.1,5.21,10.26,7.86,15.48.9,1.78-4.22,3.23-11.44,3.23Z"/><path class="o" d="m2689.93,1294.26c-42.01,0-84.01,0-126.03,0-3.3-5.53-6.56-10.99-9.79-16.39-1.09-1.82,3.93-3.28,11.17-3.28,41.13,0,82.27,0,123.4,0,4,5.36,8.04,10.79,12.12,16.28,1.4,1.87-3.47,3.4-10.88,3.4Z"/><path class="o" d="m2672.56,1270.49c-58.3,0-116.58,0-174.88,0-2.84-5.25-5.65-10.45-8.42-15.58-.94-1.73,4.05-3.12,11.12-3.12,57.12,0,114.23,0,171.33,0,3.81,5.1,7.65,10.26,11.53,15.48,1.34,1.78-3.45,3.23-10.67,3.23Z"/><path class="o" d="m1652.92,1247.88c-26.18,0-52.37,0-78.56,0,.91-1.91,1.81-3.82,2.71-5.71.79-1.68,7.09-3.04,14.07-3.04,25.93,0,51.87,0,77.8,0-.7,1.88-1.4,3.77-2.11,5.67-.63,1.69-6.85,3.07-13.9,3.07Z"/><path class="o" d="m1766.89,1247.88c-26.19,0-52.38,0-78.56,0,.67-1.91,1.33-3.82,1.98-5.71.59-1.68,6.71-3.04,13.68-3.04,25.94,0,51.86,0,77.8,0-.47,1.88-.93,3.77-1.39,5.67-.42,1.69-6.47,3.07-13.51,3.07Z"/><path class="o" d="m1880.87,1247.88c-26.19,0-52.37,0-78.56,0,.42-1.91.84-3.82,1.26-5.71.38-1.68,6.32-3.04,13.3-3.04,25.93,0,51.87,0,77.8,0-.22,1.88-.45,3.77-.67,5.67-.2,1.69-6.07,3.07-13.12,3.07Z"/><text/><path class="o" d="m2154.44,1247.68c-26.18,0-52.35,0-78.54,0-.15-1.91-.31-3.82-.48-5.71-.15-1.68,5.38-3.03,12.37-3.03,25.92,0,51.86,0,77.78,0,.35,1.88.7,3.77,1.06,5.67.31,1.7-5.13,3.07-12.18,3.07Z"/><path class="o" d="m2268.39,1247.68c-26.17,0-52.37,0-78.55,0-.41-1.91-.81-3.82-1.21-5.71-.35-1.68,5.01-3.03,11.99-3.03,25.92,0,51.85,0,77.78,0,.59,1.88,1.18,3.77,1.78,5.67.52,1.7-4.74,3.07-11.79,3.07Z"/><path class="o" d="m2427.99,1247.68c-26.18,0-52.36,0-78.55,0-.73-1.91-1.48-3.82-2.22-5.71-.65-1.68,4.47-3.03,11.45-3.03,25.93,0,51.85,0,77.78,0,.93,1.88,1.85,3.77,2.78,5.67.84,1.7-4.21,3.07-11.24,3.07Z"/><path class="o" d="m2541.94,1247.68c-26.18,0-52.37,0-78.54,0-.99-1.91-1.97-3.82-2.95-5.71-.88-1.68,4.08-3.03,11.06-3.03,25.93,0,51.86,0,77.78,0,1.16,1.88,2.33,3.77,3.5,5.67,1.04,1.7-3.81,3.07-10.85,3.07Z"/><path class="s" d="m2216.25,1473.92c-144.15,0-288.33,0-432.49,0-13.28,0-23.35-3.25-22.49-7.23,4.08-19.09,8.02-37.54,11.84-55.38.76-3.57,11.47-6.45,23.94-6.45,135.31,0,270.62,0,405.92,0,12.47,0,23.19,2.88,23.94,6.45,3.8,17.84,7.75,36.29,11.84,55.38.83,3.98-9.22,7.23-22.49,7.23Z"/></g><text class="k" transform="translate(1438.31 605.57)"><tspan x="0" y="0">Hi, I&apos;m Erin Mo</tspan><tspan class="ao" x="712.36" y="0">r</tspan><tspan x="752.19" y="0">elli!</tspan></text><text class="an" transform="translate(1438.31 739.8)"><tspan x="0" y="0">I&apos;m passionate about crafting </tspan><tspan x="0" y="85.34">user-centric </tspan><tspan class="j" x="380.69" y="85.34">e</tspan><tspan x="415.46" y="85.34">xperiences that blend</tspan><tspan x="0" y="170.67">fun</tspan><tspan class="i" x="93.18" y="170.67">c</tspan><tspan x="127.56" y="170.67">tionality with a touch of c</tspan><tspan class="ap" x="866.51" y="170.67">r</tspan><tspan x="888.68" y="170.67">eativit</tspan><tspan class="h" x="1067.84" y="170.67">y</tspan><tspan x="1097.41" y="170.67">.</tspan></text><path class="t" d="m2416,597.3c-.76-.16-1.51-.38-2.26-.64-.73-.25-1.46-.55-2.17-.88-1.42-.66-2.79-1.47-4.07-2.4-2.57-1.87-4.79-4.29-6.39-7.09-1.6-2.8-2.56-5.96-2.78-9.11-.11-1.58-.05-3.16.17-4.7.12-.77.27-1.53.47-2.28.19-.75.43-1.48.72-2.2l.2,2.28c.07.75.16,1.49.25,2.22.2,1.46.45,2.9.79,4.29.68,2.79,1.69,5.43,3.09,7.87,1.39,2.44,3.16,4.68,5.19,6.76,1.02,1.04,2.1,2.03,3.24,3.01.57.48,1.15.96,1.74,1.44l1.8,1.44Z"/><path class="t" d="m2415.54,603.21c-.56.25-1.13.45-1.71.61-.58.17-1.18.29-1.78.39-1.2.2-2.43.26-3.66.2-2.47-.12-4.96-.8-7.18-2.01-2.22-1.21-4.15-2.93-5.55-4.97-.7-1.02-1.27-2.1-1.71-3.22-.21-.57-.39-1.14-.54-1.72-.14-.58-.25-1.17-.3-1.77.41.45.79.9,1.18,1.33.38.44.76.87,1.14,1.28.76.83,1.54,1.62,2.33,2.35,1.6,1.46,3.29,2.69,5.13,3.7,1.84,1,3.82,1.76,5.93,2.36,1.05.3,2.14.56,3.25.79.56.12,1.12.23,1.7.34.57.11,1.15.22,1.75.35Z"/><path class="t" d="m2452.19,524.26c.78.2,1.54.46,2.29.76.74.29,1.47.64,2.18,1,1.43.74,2.79,1.63,4.05,2.64,2.53,2.01,4.68,4.56,6.17,7.46,1.49,2.89,2.29,6.11,2.33,9.29.02,1.59-.13,3.17-.45,4.7-.17.77-.36,1.53-.61,2.26-.25.74-.53,1.46-.87,2.17l-.08-2.29c-.03-.76-.08-1.51-.14-2.25-.11-1.48-.29-2.93-.56-4.34-.54-2.84-1.43-5.54-2.73-8.06-1.29-2.53-2.98-4.87-4.94-7.06-.99-1.1-2.05-2.15-3.16-3.19-.55-.52-1.13-1.03-1.71-1.54l-1.77-1.54Z"/><path class="t" d="m2466.43,523.51c.58.16,1.13.37,1.68.61.54.24,1.07.51,1.59.81,1.03.6,1.99,1.31,2.88,2.12,1.77,1.62,3.21,3.65,4.09,5.91.9,2.26,1.23,4.72.95,7.07-.14,1.18-.41,2.33-.81,3.42-.2.55-.44,1.08-.71,1.6-.26.51-.57,1.01-.92,1.49-.02-.58-.01-1.15-.02-1.7,0-.56,0-1.11-.03-1.65-.03-1.08-.1-2.13-.23-3.16-.25-2.06-.72-4.01-1.46-5.88-.73-1.87-1.73-3.66-2.92-5.4-.6-.87-1.25-1.73-1.93-2.6-.34-.43-.69-.86-1.06-1.3-.36-.44-.73-.88-1.09-1.34Z"/><path class="am" d="m2406.14,547.72c-3.2,1.52-4.42,5.32-2.88,8.56l20.48,42.8,11.35-5.42-20.48-42.8c-1.55-3.23-5.28-4.67-8.47-3.14Z"/><path class="am" d="m2459.98,581.77l12.08-5.77-23.36-48.82c-1.57-3.27-5.57-4.71-8.9-3.12h-.03c-3.32,1.61-4.72,5.62-3.11,8.99l23.31,48.72Z"/><path class="al" d="m2439.81,524.07h-.03c-.36.19-.69.4-1,.63,3.06-.84,6.38.61,7.78,3.52l23.36,48.81,2.15-1.03-23.36-48.82c-1.57-3.27-5.57-4.71-8.9-3.12Z"/><path class="am" d="m2435.09,593.66l12.44-5.94-23.84-49.81c-1.67-3.48-5.8-4.97-9.23-3.34h-.02c-3.43,1.65-4.86,5.8-3.2,9.28l23.84,49.82Z"/><path class="al" d="m2414.47,534.57h-.02c-.36.19-.69.4-1.01.63,3.16-.88,6.62.62,8.11,3.73l14.83,31,3.65,2.1-16.33-34.13c-1.67-3.48-5.8-4.97-9.23-3.34Z"/><path class="am" d="m2445.6,583.67l12.45-5.94-23.84-49.81c-1.66-3.48-5.79-4.97-9.22-3.33h-.02c-3.43,1.65-4.87,5.8-3.2,9.28l23.84,49.81Z"/><path class="al" d="m2424.98,524.58h-.02c-.37.18-.7.4-1.01.63,3.17-.88,6.62.62,8.11,3.73l16.77,35.04,3.64,2.1-18.27-38.17c-1.66-3.48-5.8-4.97-9.22-3.33Z"/><path class="al" d="m2406.14,547.72c-.37.18-.71.39-1.02.62,2.91-.75,5.98.69,7.34,3.55l12.18,25.45,3.65,2.09-13.67-28.57c-1.55-3.23-5.28-4.67-8.48-3.14Z"/><path class="am" d="m2488.6,542.96c-4.41-3.38-11.61.33-15.15,12.08-2.47,8.2-2.72,10.51-7.95,13l-2.87-5.99s-46.09,22.26-44.35,25.89c0,0,5.58,17.19,14.92,25.21,13.92,11.95,46.56-.86,48.04-31.78.87-18.23,12.19-34.71,7.36-38.41Z"/><path class="al" d="m2488.6,542.96c-.84-.64-1.77-1.02-2.77-1.15.21.12.42.24.61.4,4.83,3.7-.13,12.39-2.96,20.14-2.27,6.24-4.15,12.55-3.84,18.69,1.31,26.8-25.7,39.69-41.98,34.86,15.92,6.74,45.5-6.09,44.13-34.1-.3-6.15,1.49-12.13,3.84-18.69,2.78-7.78,7.78-16.44,2.96-20.15Z"/><path class="al" d="m2467.05,567.22c-10.03,1.11-24.93,15.53-14.5,31.35-7.59-15.86,4.89-26.69,12.81-30.46.95-.45,1.69-.89,1.69-.89Z"/></svg>
